<?xml version="1.0" encoding="UTF-8" standalone="no"?>
<!-- Created with Inkscape (http://www.inkscape.org/) -->

<svg
   xmlns:dc="http://purl.org/dc/elements/1.1/"
   xmlns:cc="http://creativecommons.org/ns#"
   xmlns:rdf="http://www.w3.org/1999/02/22-rdf-syntax-ns#"
   xmlns:svg="http://www.w3.org/2000/svg"
   xmlns="http://www.w3.org/2000/svg"
   xmlns:sodipodi="http://sodipodi.sourceforge.net/DTD/sodipodi-0.dtd"
   xmlns:inkscape="http://www.inkscape.org/namespaces/inkscape"
   width="60"
   height="60"
   viewBox="0 0 60.000001 60.000001"
   id="svg4786"
   version="1.1"
   inkscape:version="0.91 r13725"
   inkscape:export-filename="C:\Users\DXsmiley\Code\SDD\static\images\people.png"
   inkscape:export-xdpi="105"
   inkscape:export-ydpi="105"
   sodipodi:docname="icons_new.svg"
   shape-rendering="crispEdges">
  <sodipodi:namedview
     id="base"
     pagecolor="#ffffff"
     bordercolor="#666666"
     borderopacity="1.0"
     inkscape:pageopacity="0"
     inkscape:pageshadow="2"
     inkscape:zoom="7.919596"
     inkscape:cx="32.608072"
     inkscape:cy="23.436405"
     inkscape:document-units="px"
     inkscape:current-layer="layer17"
     showgrid="false"
     units="px"
     inkscape:window-width="1920"
     inkscape:window-height="1017"
     inkscape:window-x="-8"
     inkscape:window-y="-8"
     inkscape:window-maximized="1" />
  <defs
     id="defs4788" />
  <metadata
     id="metadata4791">
    <rdf:RDF>
      <cc:Work
         rdf:about="">
        <dc:format>image/svg+xml</dc:format>
        <dc:type
           rdf:resource="http://purl.org/dc/dcmitype/StillImage" />
        <dc:title />
      </cc:Work>
    </rdf:RDF>
  </metadata>
  <g
     inkscape:label="Pencil"
     inkscape:groupmode="layer"
     id="layer1"
     transform="translate(0,-992.36216)"
     sodipodi:insensitive="true"
     style="display:none">
    <path
       style="color:#000000;display:inline;overflow:visible;visibility:visible;opacity:1;fill:#000000;fill-opacity:1;fill-rule:nonzero;stroke:none;stroke-width:40;stroke-linecap:butt;stroke-linejoin:miter;stroke-miterlimit:4;stroke-dasharray:none;stroke-dashoffset:0;stroke-opacity:1;marker:none;enable-background:accumulate"
       d="m 41.700551,1028.421 6.878789,12.8108 -12.539454,-7.3618 m -1.349846,-1.4023 -25.0282839,-26.0005 5.6606659,-5.449 25.028284,26.0005"
       id="rect5334"
       inkscape:connector-curvature="0"
       sodipodi:nodetypes="ccccccc" />
  </g>
  <g
     inkscape:groupmode="layer"
     id="layer2"
     inkscape:label="Eraser"
     style="display:none"
     sodipodi:insensitive="true">
    <rect
       style="color:#000000;display:inline;overflow:visible;visibility:visible;opacity:1;fill:#000000;fill-opacity:1;fill-rule:nonzero;stroke:none;stroke-width:40;stroke-linecap:butt;stroke-linejoin:miter;stroke-miterlimit:4;stroke-dasharray:none;stroke-dashoffset:0;stroke-opacity:1;marker:none;enable-background:accumulate"
       id="rect5338"
       width="12.352172"
       height="39.526951"
       x="-5.3392916"
       y="22.244431"
       ry="4.0350428"
       transform="matrix(0.7193445,-0.69465351,0.69465351,0.7193445,0,0)" />
    <rect
       style="color:#000000;display:inline;overflow:visible;visibility:visible;opacity:1;fill:#ffffff;fill-opacity:1;fill-rule:nonzero;stroke:none;stroke-width:40;stroke-linecap:butt;stroke-linejoin:miter;stroke-miterlimit:4;stroke-dasharray:none;stroke-dashoffset:0;stroke-opacity:1;marker:none;enable-background:accumulate"
       id="rect5340"
       width="24.045561"
       height="2.6351299"
       x="-12.55296"
       y="52.004929"
       ry="0"
       transform="matrix(0.7193445,-0.69465351,0.69465351,0.7193445,0,0)" />
    <rect
       style="color:#000000;display:inline;overflow:visible;visibility:visible;opacity:1;fill:#ffffff;fill-opacity:1;fill-rule:nonzero;stroke:none;stroke-width:40;stroke-linecap:butt;stroke-linejoin:miter;stroke-miterlimit:4;stroke-dasharray:none;stroke-dashoffset:0;stroke-opacity:1;marker:none;enable-background:accumulate"
       id="rect5340-6"
       width="24.045561"
       height="2.6351299"
       x="-12.635307"
       y="24.797215"
       ry="0"
       transform="matrix(0.7193445,-0.69465351,0.69465351,0.7193445,0,0)" />
  </g>
  <g
     inkscape:groupmode="layer"
     id="layer3"
     inkscape:label="Text"
     style="display:none"
     sodipodi:insensitive="true">
    <text
       xml:space="preserve"
       style="font-style:normal;font-variant:normal;font-weight:normal;font-stretch:normal;font-size:42.47748947px;line-height:125%;font-family:Arial;-inkscape-font-specification:Arial;letter-spacing:0px;word-spacing:0px;fill:#000000;fill-opacity:1;stroke:none;stroke-width:1px;stroke-linecap:butt;stroke-linejoin:miter;stroke-opacity:1"
       x="14.630798"
       y="43.839283"
       id="text5358"
       sodipodi:linespacing="125%"><tspan
         sodipodi:role="line"
         id="tspan5360"
         x="14.630798"
         y="43.839283">A</tspan></text>
  </g>
  <g
     inkscape:groupmode="layer"
     id="layer4"
     inkscape:label="Image"
     style="display:none"
     sodipodi:insensitive="true">
    <rect
       style="color:#000000;display:inline;overflow:visible;visibility:visible;opacity:1;fill:#000000;fill-opacity:1;fill-rule:nonzero;stroke:none;stroke-width:40;stroke-linecap:butt;stroke-linejoin:miter;stroke-miterlimit:4;stroke-dasharray:none;stroke-dashoffset:0;stroke-opacity:1;marker:none;enable-background:accumulate"
       id="rect5365"
       width="34.77705"
       height="21.872358"
       x="12.298975"
       y="19.37764"
       ry="3.2079458" />
    <rect
       style="color:#000000;display:inline;overflow:visible;visibility:visible;opacity:1;fill:#000000;fill-opacity:1;fill-rule:nonzero;stroke:none;stroke-width:40;stroke-linecap:butt;stroke-linejoin:miter;stroke-miterlimit:4;stroke-dasharray:none;stroke-dashoffset:0;stroke-opacity:1;marker:none;enable-background:accumulate"
       id="rect5367"
       width="9.8425617"
       height="4.9577341"
       x="17.402527"
       y="16.607143"
       ry="2.3330517" />
    <circle
       style="color:#000000;display:inline;overflow:visible;visibility:visible;opacity:1;fill:#ffffff;fill-opacity:1;fill-rule:nonzero;stroke:none;stroke-width:40;stroke-linecap:butt;stroke-linejoin:miter;stroke-miterlimit:4;stroke-dasharray:none;stroke-dashoffset:0;stroke-opacity:1;marker:none;enable-background:accumulate"
       id="path5369"
       cx="30.052038"
       cy="30.496094"
       r="5.7232671" />
  </g>
  <g
     inkscape:groupmode="layer"
     id="layer5"
     inkscape:label="Math"
     style="display:none"
     sodipodi:insensitive="true">
    <text
       xml:space="preserve"
       style="font-style:normal;font-variant:normal;font-weight:normal;font-stretch:normal;font-size:46.49240875px;line-height:125%;font-family:Arial;-inkscape-font-specification:Arial;letter-spacing:0px;word-spacing:0px;fill:#000000;fill-opacity:1;stroke:none;stroke-width:1px;stroke-linecap:butt;stroke-linejoin:miter;stroke-opacity:1"
       x="12.586292"
       y="42.77541"
       id="text5436"
       sodipodi:linespacing="125%"><tspan
         sodipodi:role="line"
         id="tspan5440"
         x="12.586292"
         y="42.77541">π</tspan></text>
  </g>
  <g
     inkscape:groupmode="layer"
     id="layer6"
     inkscape:label="Blue"
     style="display:none"
     sodipodi:insensitive="true">
    <rect
       style="color:#000000;display:inline;overflow:visible;visibility:visible;opacity:1;fill:#007fee;fill-opacity:1;fill-rule:nonzero;stroke:none;stroke-width:40;stroke-linecap:butt;stroke-linejoin:miter;stroke-miterlimit:4;stroke-dasharray:none;stroke-dashoffset:0;stroke-opacity:1;marker:none;enable-background:accumulate"
       id="rect5443"
       width="43.482143"
       height="43.482143"
       x="8.125"
       y="8.4821424" />
  </g>
  <g
     style="display:none"
     inkscape:label="Red"
     id="g5446"
     inkscape:groupmode="layer"
     sodipodi:insensitive="true">
    <rect
       y="8.4821424"
       x="8.125"
       height="43.482143"
       width="43.482143"
       id="rect5448"
       style="color:#000000;display:inline;overflow:visible;visibility:visible;opacity:1;fill:#ee7f00;fill-opacity:1;fill-rule:nonzero;stroke:none;stroke-width:40;stroke-linecap:butt;stroke-linejoin:miter;stroke-miterlimit:4;stroke-dasharray:none;stroke-dashoffset:0;stroke-opacity:1;marker:none;enable-background:accumulate" />
  </g>
  <g
     inkscape:groupmode="layer"
     id="g5450"
     inkscape:label="Black"
     style="display:none"
     sodipodi:insensitive="true">
    <rect
       style="color:#000000;display:inline;overflow:visible;visibility:visible;opacity:1;fill:#2a2a2a;fill-opacity:1;fill-rule:nonzero;stroke:none;stroke-width:40;stroke-linecap:butt;stroke-linejoin:miter;stroke-miterlimit:4;stroke-dasharray:none;stroke-dashoffset:0;stroke-opacity:1;marker:none;enable-background:accumulate"
       id="rect5452"
       width="43.482143"
       height="43.482143"
       x="8.125"
       y="8.4821424" />
  </g>
  <g
     inkscape:groupmode="layer"
     id="layer8"
     inkscape:label="Undo"
     sodipodi:insensitive="true"
     style="display:none">
    <path
       sodipodi:type="star"
       style="color:#000000;display:inline;overflow:visible;visibility:visible;opacity:1;fill:#000000;fill-opacity:1;fill-rule:nonzero;stroke:none;stroke-width:2;stroke-linecap:butt;stroke-linejoin:miter;stroke-miterlimit:4;stroke-dasharray:4, 4;stroke-dashoffset:0;stroke-opacity:1;marker:none;enable-background:accumulate"
       id="path4186"
       sodipodi:sides="3"
       sodipodi:cx="17.410715"
       sodipodi:cy="29.017859"
       sodipodi:r1="7.3219728"
       sodipodi:r2="3.6609864"
       sodipodi:arg1="1.5707963"
       sodipodi:arg2="2.6179939"
       inkscape:flatsided="true"
       inkscape:rounded="0"
       inkscape:randomized="0"
       d="m 17.410715,36.339831 -6.341014,-10.982959 12.682028,0 z"
       inkscape:transform-center-y="0.51090636"
       transform="matrix(0.69814591,0.3158046,-0.37368344,0.82609804,15.595877,-8.2241361)"
       inkscape:transform-center-x="-1.3680498" />
    <path
       style="color:#000000;display:inline;overflow:visible;visibility:visible;opacity:1;fill:none;fill-opacity:1;fill-rule:nonzero;stroke:#000000;stroke-width:3.62673903;stroke-linecap:butt;stroke-linejoin:miter;stroke-miterlimit:4;stroke-dasharray:none;stroke-dashoffset:0;stroke-opacity:1;marker:none;enable-background:accumulate"
       id="path4190"
       sodipodi:type="arc"
       sodipodi:cx="37.882866"
       sodipodi:cy="14.61539"
       sodipodi:rx="14.774105"
       sodipodi:ry="14.774105"
       sodipodi:start="3.2672564"
       sodipodi:end="1.9617501"
       d="M 23.225259,12.763703 A 14.774105,14.774105 0 0 1 34.937384,0.13787917 14.774105,14.774105 0 0 1 50.651753,7.1837207 14.774105,14.774105 0 0 1 49.01609,24.327521 14.774105,14.774105 0 0 1 32.252892,28.27473"
       sodipodi:open="true"
       transform="matrix(0.91111935,0.41214262,-0.41214262,0.91111935,0,0)" />
  </g>
  <g
     inkscape:groupmode="layer"
     id="layer9"
     inkscape:label="Yes"
     sodipodi:insensitive="true"
     style="display:none">
    <path
       style="fill:#000000;fill-opacity:1;fill-rule:evenodd;stroke:none;stroke-width:1px;stroke-linecap:butt;stroke-linejoin:miter;stroke-opacity:1"
       d="m 11.736628,36.590216 3.511764,-5.22681 11.106974,5.471817 16.823798,-25.317366 5.798494,3.430095 -19.845549,31.03419 z"
       id="path6116"
       inkscape:connector-curvature="0" />
  </g>
  <g
     inkscape:groupmode="layer"
     id="layer10"
     inkscape:label="No"
     style="display:none"
     sodipodi:insensitive="true">
    <rect
       style="color:#000000;display:inline;overflow:visible;visibility:visible;opacity:1;fill:#000000;fill-opacity:1;fill-rule:nonzero;stroke:none;stroke-width:40;stroke-linecap:butt;stroke-linejoin:miter;stroke-miterlimit:4;stroke-dasharray:none;stroke-dashoffset:0;stroke-opacity:1;marker:none;enable-background:accumulate"
       id="rect6119"
       width="8.0357141"
       height="38.30357"
       x="39.450272"
       y="-19.751564"
       transform="matrix(0.70710678,0.70710678,-0.70710678,0.70710678,0,0)" />
    <rect
       y="24.316341"
       x="-3.4180787"
       height="38.30357"
       width="8.0357141"
       id="rect6121"
       style="color:#000000;display:inline;overflow:visible;visibility:visible;opacity:1;fill:#000000;fill-opacity:1;fill-rule:nonzero;stroke:none;stroke-width:40;stroke-linecap:butt;stroke-linejoin:miter;stroke-miterlimit:4;stroke-dasharray:none;stroke-dashoffset:0;stroke-opacity:1;marker:none;enable-background:accumulate"
       transform="matrix(0.70710678,-0.70710678,0.70710678,0.70710678,0,0)" />
  </g>
  <g
     inkscape:groupmode="layer"
     id="layer7"
     inkscape:label="Upload"
     style="display:none"
     sodipodi:insensitive="true">
    <path
       style="color:#000000;display:inline;overflow:visible;visibility:visible;opacity:1;fill:#000000;fill-opacity:1;fill-rule:nonzero;stroke:none;stroke-width:40;stroke-linecap:butt;stroke-linejoin:miter;stroke-miterlimit:4;stroke-dasharray:none;stroke-dashoffset:0;stroke-opacity:1;marker:none;enable-background:accumulate"
       d="m 30.13393,7.5258245 13.080359,13.6035715 -26.160718,0 z"
       id="rect4171"
       inkscape:connector-curvature="0"
       sodipodi:nodetypes="cccc" />
    <rect
       y="17.507143"
       x="24.298079"
       height="15.592032"
       width="11.671704"
       id="rect4173"
       style="color:#000000;display:inline;overflow:visible;visibility:visible;opacity:1;fill:#000000;fill-opacity:1;fill-rule:nonzero;stroke:none;stroke-width:40;stroke-linecap:butt;stroke-linejoin:miter;stroke-miterlimit:4;stroke-dasharray:none;stroke-dashoffset:0;stroke-opacity:1;marker:none;enable-background:accumulate" />
    <rect
       style="color:#000000;display:inline;overflow:visible;visibility:visible;opacity:1;fill:#000000;fill-opacity:1;fill-rule:nonzero;stroke:none;stroke-width:40;stroke-linecap:butt;stroke-linejoin:miter;stroke-miterlimit:4;stroke-dasharray:none;stroke-dashoffset:0;stroke-opacity:1;marker:none;enable-background:accumulate"
       id="rect4196"
       width="11.671704"
       height="3.5384607"
       x="24.298079"
       y="46.971428" />
    <rect
       style="color:#000000;display:inline;overflow:visible;visibility:visible;opacity:1;fill:#000000;fill-opacity:1;fill-rule:nonzero;stroke:none;stroke-width:40;stroke-linecap:butt;stroke-linejoin:miter;stroke-miterlimit:4;stroke-dasharray:none;stroke-dashoffset:0;stroke-opacity:1;marker:none;enable-background:accumulate"
       id="rect4198"
       width="11.671704"
       height="7.0206037"
       x="24.298079"
       y="36.525002" />
  </g>
  <g
     style="display:none"
     inkscape:label="Download"
     id="g4178"
     inkscape:groupmode="layer"
     sodipodi:insensitive="true">
    <path
       sodipodi:nodetypes="cccc"
       inkscape:connector-curvature="0"
       id="path4180"
       d="m 30.13393,50.509889 -13.080359,-13.603572 26.160718,0 z"
       style="color:#000000;display:inline;overflow:visible;visibility:visible;opacity:1;fill:#000000;fill-opacity:1;fill-rule:nonzero;stroke:none;stroke-width:40;stroke-linecap:butt;stroke-linejoin:miter;stroke-miterlimit:4;stroke-dasharray:none;stroke-dashoffset:0;stroke-opacity:1;marker:none;enable-background:accumulate" />
    <rect
       style="color:#000000;display:inline;overflow:visible;visibility:visible;opacity:1;fill:#000000;fill-opacity:1;fill-rule:nonzero;stroke:none;stroke-width:40;stroke-linecap:butt;stroke-linejoin:miter;stroke-miterlimit:4;stroke-dasharray:none;stroke-dashoffset:0;stroke-opacity:1;marker:none;enable-background:accumulate"
       id="rect4182"
       width="11.671704"
       height="15.592032"
       x="-35.96978"
       y="-40.528568"
       transform="scale(-1,-1)" />
    <rect
       y="-11.064285"
       x="-35.96978"
       height="3.5384607"
       width="11.671704"
       id="rect4184"
       style="color:#000000;display:inline;overflow:visible;visibility:visible;opacity:1;fill:#000000;fill-opacity:1;fill-rule:nonzero;stroke:none;stroke-width:40;stroke-linecap:butt;stroke-linejoin:miter;stroke-miterlimit:4;stroke-dasharray:none;stroke-dashoffset:0;stroke-opacity:1;marker:none;enable-background:accumulate"
       transform="scale(-1,-1)" />
    <rect
       y="-21.510712"
       x="-35.96978"
       height="7.0206037"
       width="11.671704"
       id="rect4186"
       style="color:#000000;display:inline;overflow:visible;visibility:visible;opacity:1;fill:#000000;fill-opacity:1;fill-rule:nonzero;stroke:none;stroke-width:40;stroke-linecap:butt;stroke-linejoin:miter;stroke-miterlimit:4;stroke-dasharray:none;stroke-dashoffset:0;stroke-opacity:1;marker:none;enable-background:accumulate"
       transform="scale(-1,-1)" />
  </g>
  <g
     inkscape:groupmode="layer"
     id="layer11"
     inkscape:label="Link"
     style="display:none"
     sodipodi:insensitive="true">
    <path
       style="color:#000000;display:inline;overflow:visible;visibility:visible;opacity:1;fill:none;fill-opacity:1;fill-rule:nonzero;stroke:#000000;stroke-width:3.03359222;stroke-linecap:round;stroke-linejoin:miter;stroke-miterlimit:4;stroke-dasharray:none;stroke-dashoffset:0;stroke-opacity:1;marker:none;enable-background:accumulate"
       d="m 32.343463,38.667211 -4.977153,6.146572 c -2.366607,2.922658 -6.624751,3.370309 -9.547409,1.003703 -2.922657,-2.366608 -3.370309,-6.624752 -1.003702,-9.54741 l 7.158921,-8.840959 c 2.366608,-2.922657 6.624752,-3.370308 9.54741,-1.003701"
       id="rect4189"
       inkscape:connector-curvature="0"
       sodipodi:nodetypes="cssssc" />
    <path
       sodipodi:nodetypes="cssssc"
       inkscape:connector-curvature="0"
       id="path4194"
       d="m 28.013854,19.72547 4.977153,-6.146573 c 2.366607,-2.922657 6.624751,-3.370307 9.547409,-1.003701 2.922657,2.366608 3.370309,6.624751 1.003702,9.547409 l -7.158921,8.840959 c -2.366607,2.922658 -6.624752,3.370308 -9.54741,1.003702"
       style="color:#000000;display:inline;overflow:visible;visibility:visible;opacity:1;fill:none;fill-opacity:1;fill-rule:nonzero;stroke:#000000;stroke-width:3.03359222;stroke-linecap:round;stroke-linejoin:miter;stroke-miterlimit:4;stroke-dasharray:none;stroke-dashoffset:0;stroke-opacity:1;marker:none;enable-background:accumulate" />
  </g>
  <g
     inkscape:groupmode="layer"
     id="layer12"
     inkscape:label="Clear"
     style="display:none"
     sodipodi:insensitive="true">
    <path
       style="color:#000000;display:inline;overflow:visible;visibility:visible;opacity:1;fill:#000000;fill-opacity:1;fill-rule:nonzero;stroke:none;stroke-width:8;stroke-linecap:round;stroke-linejoin:miter;stroke-miterlimit:4;stroke-dasharray:none;stroke-dashoffset:0;stroke-opacity:1;marker:none;enable-background:accumulate"
       d="m 30,5.3769531 a 24.622467,24.622467 0 0 0 -1.029297,0.037109 L 27.699219,14.273438 A 15.909903,15.909903 0 0 1 30,14.089844 15.909903,15.909903 0 0 1 32.691406,14.337891 L 31.638672,5.4589844 A 24.622467,24.622467 0 0 0 30,5.3769531 Z M 13.810547,11.490234 a 24.622467,24.622467 0 0 0 -1.912109,1.865235 l 5.355468,7.154297 a 15.909903,15.909903 0 0 1 3.576172,-3.488282 l -7.019531,-5.53125 z m 32.833984,0.408204 -7.154297,5.355468 a 15.909903,15.909903 0 0 1 3.488282,3.576172 l 5.53125,-7.019531 A 24.622467,24.622467 0 0 0 46.644531,11.898438 Z M 14.337891,27.308594 5.4589844,28.361328 A 24.622467,24.622467 0 0 0 5.3769531,30 a 24.622467,24.622467 0 0 0 0.037109,1.029297 l 8.8593759,1.271484 A 15.909903,15.909903 0 0 1 14.089844,30 15.909903,15.909903 0 0 1 14.337891,27.308594 Z m 31.388671,0.390625 A 15.909903,15.909903 0 0 1 45.910156,30 15.909903,15.909903 0 0 1 45.662109,32.691406 l 8.878907,-1.052734 A 24.622467,24.622467 0 0 0 54.623047,30 24.622467,24.622467 0 0 0 54.585938,28.970703 l -8.859376,-1.271484 z m -28.705078,11.470703 -5.53125,7.019531 a 24.622467,24.622467 0 0 0 1.865235,1.912109 l 7.154297,-5.355468 a 15.909903,15.909903 0 0 1 -3.488282,-3.576172 z m 25.72461,0.320312 a 15.909903,15.909903 0 0 1 -3.576172,3.488282 l 7.019531,5.53125 a 24.622467,24.622467 0 0 0 1.912109,-1.865235 l -5.355468,-7.154297 z m -15.4375,6.171875 1.052734,8.878907 A 24.622467,24.622467 0 0 0 30,54.623047 a 24.622467,24.622467 0 0 0 1.029297,-0.03711 l 1.271484,-8.859376 A 15.909903,15.909903 0 0 1 30,45.910156 15.909903,15.909903 0 0 1 27.308594,45.662109 Z"
       id="path4189"
       inkscape:connector-curvature="0" />
  </g>
  <g
     inkscape:groupmode="layer"
     id="layer13"
     inkscape:label="Settings"
     style="display:none"
     sodipodi:insensitive="true">
    <g
       id="g8204"
       transform="matrix(0.98443574,0,0,0.98443574,30,30)"
       inkscape:label="Gear8"
       style="fill:#000000;fill-opacity:1;stroke:none;stroke-opacity:1">
      <circle
         id="path8208"
         style="fill:#000000;fill-opacity:1;stroke:none;stroke-width:1;stroke-opacity:1"
         cx="-4.1422769e-007"
         cy="3.294586e-007"
         r="5.2788382"
         transform="matrix(0.92829557,0.37184315,-0.37184315,0.92829557,0,0)" />
      <circle
         id="path8208-4"
         style="fill:#ffffff;fill-opacity:1;stroke:none;stroke-width:1;stroke-opacity:1"
         cx="-4.1422766e-007"
         cy="3.294586e-007"
         r="5.2788382"
         transform="matrix(0.92829557,0.37184315,-0.37184315,0.92829557,0,0)" />
      <path
         style="color:#000000;display:inline;overflow:visible;visibility:visible;opacity:1;fill:#000000;fill-opacity:1;fill-rule:evenodd;stroke:none;stroke-width:8;stroke-linecap:round;stroke-linejoin:miter;stroke-miterlimit:4;stroke-dasharray:none;stroke-dashoffset:0;stroke-opacity:1;marker:none;enable-background:accumulate"
         d="M 8.7280029,-21.789208 A 23.472537,23.472537 0 0 0 7.0136028,-22.39132 l -7.16265225,9.642873 -7.37570395,-9.456773 a 23.472537,23.472537 0 0 0 -3.3483906,1.411612 L -9.1201624,-8.9088582 -21.02927,-10.381066 a 23.472537,23.472537 0 0 0 -0.759938,1.6530611 23.472537,23.472537 0 0 0 -0.602112,1.7144001 l 9.642873,7.16265225 -9.456773,7.37570395 a 23.472537,23.472537 0 0 0 1.411612,3.3483906 L -8.9088582,9.1201604 -10.381065,21.029267 a 23.472537,23.472537 0 0 0 1.6530601,0.759939 23.472537,23.472537 0 0 0 1.7144001,0.602112 L 0.14904745,12.748445 7.5247514,22.205218 A 23.472537,23.472537 0 0 0 10.873142,20.793606 L 9.1201604,8.9088562 21.029267,10.381063 A 23.472537,23.472537 0 0 0 21.789206,8.7280029 23.472537,23.472537 0 0 0 22.391318,7.0136028 L 12.748445,-0.14904945 22.205218,-7.5247534 A 23.472537,23.472537 0 0 0 20.793606,-10.873144 L 8.9088562,-9.1201624 10.381064,-21.02927 a 23.472537,23.472537 0 0 0 -1.6530611,-0.759938 z"
         id="path8285"
         inkscape:connector-curvature="0" />
      <circle
         style="color:#000000;display:inline;overflow:visible;visibility:visible;opacity:1;fill:#000000;fill-opacity:1;fill-rule:nonzero;stroke:none;stroke-width:8.12648201;stroke-linecap:round;stroke-linejoin:miter;stroke-miterlimit:4;stroke-dasharray:none;stroke-dashoffset:0;stroke-opacity:1;marker:none;enable-background:accumulate"
         id="path8281"
         cx="-4.1422769e-007"
         cy="3.294586e-007"
         r="15.573127"
         transform="matrix(0.92829557,0.37184315,-0.37184315,0.92829557,0,0)" />
      <circle
         r="9.3615122"
         cy="3.294586e-007"
         cx="-4.1422769e-007"
         id="circle8290"
         style="color:#000000;display:inline;overflow:visible;visibility:visible;opacity:1;fill:#ffffff;fill-opacity:1;fill-rule:nonzero;stroke:none;stroke-width:8.12648201;stroke-linecap:round;stroke-linejoin:miter;stroke-miterlimit:4;stroke-dasharray:none;stroke-dashoffset:0;stroke-opacity:1;marker:none;enable-background:accumulate"
         transform="matrix(0.92829557,0.37184315,-0.37184315,0.92829557,0,0)" />
    </g>
  </g>
  <g
     inkscape:groupmode="layer"
     id="layer14"
     inkscape:label="Settings 2"
     style="display:none"
     sodipodi:insensitive="true">
    <path
       style="color:#000000;display:inline;overflow:visible;visibility:visible;opacity:1;fill:#000000;fill-opacity:1;fill-rule:evenodd;stroke:none;stroke-width:2;stroke-linecap:round;stroke-linejoin:round;stroke-miterlimit:4;stroke-dasharray:none;stroke-dashoffset:0;stroke-opacity:1;marker:none;enable-background:accumulate"
       d="M 26.149904,9.5008375 A 20.868877,20.868877 0 0 0 15.432068,15.056122 l 2.786032,7.428302 -7.881453,0.600841 A 20.868877,20.868877 0 0 0 9.1316038,30 20.868877,20.868877 0 0 0 9.7928677,35.145771 l 7.8076053,1.29903 -3.420443,7.126201 a 20.868877,20.868877 0 0 0 10.174056,6.498507 l 5.024931,-6.109133 4.471079,6.538786 A 20.868877,20.868877 0 0 0 44.567932,44.943878 L 41.7819,37.515577 49.663353,36.914735 A 20.868877,20.868877 0 0 0 50.868396,30 20.868877,20.868877 0 0 0 50.207132,24.854229 l -7.807605,-1.29903 3.420443,-7.126201 A 20.868877,20.868877 0 0 0 35.645914,9.9304908 L 30.620983,16.039624 26.149904,9.5008375 Z"
       id="path4203-7-9"
       inkscape:connector-curvature="0" />
    <circle
       style="color:#000000;display:inline;overflow:visible;visibility:visible;opacity:1;fill:#000000;fill-opacity:1;fill-rule:evenodd;stroke:none;stroke-width:2;stroke-linecap:round;stroke-linejoin:round;stroke-miterlimit:4;stroke-dasharray:none;stroke-dashoffset:0;stroke-opacity:1;marker:none;enable-background:accumulate"
       id="path4203-7"
       cx="30"
       cy="30"
       r="16.22085" />
    <circle
       style="color:#000000;display:inline;overflow:visible;visibility:visible;opacity:1;fill:#ffffff;fill-opacity:1;fill-rule:evenodd;stroke:none;stroke-width:2;stroke-linecap:round;stroke-linejoin:round;stroke-miterlimit:4;stroke-dasharray:none;stroke-dashoffset:0;stroke-opacity:1;marker:none;enable-background:accumulate"
       id="path4203"
       cx="30"
       cy="30"
       r="8.338129" />
  </g>
  <g
     inkscape:groupmode="layer"
     id="layer15"
     inkscape:label="Help"
     sodipodi:insensitive="true"
     style="display:none">
    <g
       style="font-style:normal;font-variant:normal;font-weight:normal;font-stretch:normal;font-size:43.34611511px;line-height:125%;font-family:Arial;-inkscape-font-specification:Arial;letter-spacing:0px;word-spacing:0px;fill:#000000;fill-opacity:1;stroke:none;stroke-width:1px;stroke-linecap:butt;stroke-linejoin:miter;stroke-opacity:1"
       id="text4749">
      <path
         d="m 33.52112,39.84601 -6.100763,0 0,-4.223605 c 0,-1.418298 0.281574,-2.534163 0.844722,-3.347597 0.584005,-0.813436 1.845873,-1.971016 3.785602,-3.472742 2.961737,-2.273447 4.442605,-4.682465 4.442605,-7.227057 0,-1.918872 -0.584005,-3.441456 -1.752013,-4.567751 -1.147153,-1.126293 -2.64888,-1.689441 -4.505179,-1.689441 -4.296605,0 -6.830768,2.972314 -7.602487,8.916646 l -6.82034,0 c 0,-5.528198 2.054445,-9.146077 4.911896,-11.66981 2.878309,-2.544591 6.319763,-3.8168873 10.324366,-3.8168873 3.983747,0 7.279201,1.1888673 9.886364,3.5665993 2.607164,2.356876 3.25084,5.297756 3.25084,8.822641 -0.131189,3.413239 -1.247861,6.373435 -3.073381,8.66621 -0.781338,0.981329 -2.659479,2.367305 -5.621216,4.536465 -0.834293,0.604861 -1.366154,1.199295 -1.595585,1.783299 -0.22943,0.563147 -0.354573,1.804157 -0.375431,3.72303 z"
         style="font-style:normal;font-variant:normal;font-weight:normal;font-stretch:normal;font-family:'Franklin Gothic Medium';-inkscape-font-specification:'Franklin Gothic Medium, '"
         id="path4754"
         inkscape:connector-curvature="0"
         sodipodi:nodetypes="ccsccscscccsccsccc" />
      <circle
         style="color:#000000;display:inline;overflow:visible;visibility:visible;opacity:1;fill:#000000;fill-opacity:1;fill-rule:evenodd;stroke:none;stroke-width:2;stroke-linecap:round;stroke-linejoin:round;stroke-miterlimit:4;stroke-dasharray:none;stroke-dashoffset:0;stroke-opacity:1;marker:none;enable-background:accumulate"
         id="path4756"
         cx="30.503544"
         cy="47.96051"
         r="4.7203045" />
    </g>
  </g>
  <g
     inkscape:groupmode="layer"
     id="layer16"
     inkscape:label="MouseButtons"
     sodipodi:insensitive="true"
     style="display:none">
    <path
       style="color:#000000;display:inline;overflow:visible;visibility:visible;opacity:1;fill:#ffffff;fill-opacity:1;fill-rule:evenodd;stroke:none;stroke-width:1.5;stroke-linecap:round;stroke-linejoin:round;stroke-miterlimit:4;stroke-dasharray:none;stroke-dashoffset:0;stroke-opacity:1;marker:none;enable-background:accumulate"
       d="m 30.865128,10.189187 c -0.121946,1.554093 -0.01762,3.150553 -0.05232,4.720983 0.07783,0.504114 -0.162286,1.140731 0.131487,1.560058 1.757918,0.462265 3.29364,1.989766 3.386056,3.862654 0.126679,1.081314 -0.04374,2.199996 0.120152,3.264683 1.577631,0.119425 3.196254,0.01808 4.789865,0.05144 1.001393,-0.04552 2.041278,0.09019 3.019148,-0.06609 0.06609,-1.2872 -0.02358,-2.62465 -0.271171,-3.904507 -0.99969,-4.825622 -5.204341,-8.782291 -10.082784,-9.488184 -0.338079,-0.04057 -0.718878,-0.138124 -1.040437,-0.001 z"
       id="path4232"
       inkscape:connector-curvature="0" />
    <path
       style="color:#000000;display:inline;overflow:visible;visibility:visible;opacity:1;fill:#ffffff;fill-opacity:1;fill-rule:evenodd;stroke:none;stroke-width:1.5;stroke-linecap:round;stroke-linejoin:round;stroke-miterlimit:4;stroke-dasharray:none;stroke-dashoffset:0;stroke-opacity:1;marker:none;enable-background:accumulate"
       d="m 28.634904,10.125013 c -5.172688,0.490242 -9.75595,4.66795 -10.658506,9.795253 -0.21647,1.184658 -0.309719,2.409655 -0.283574,3.602789 0.417515,0.281125 1.082099,0.0513 1.595853,0.125954 2.057605,-0.02452 4.135995,0.04881 6.180734,-0.03629 0.267245,-0.424881 0.04733,-1.078788 0.119943,-1.592128 -0.01548,-1.437401 0.05433,-3.077604 1.162876,-4.147776 0.595245,-0.710971 1.457145,-1.107743 2.293713,-1.425559 0.164321,-0.855928 0.03714,-1.818227 0.08903,-2.714986 -0.01517,-1.160371 0.06709,-2.340619 -0.0089,-3.488586 -0.07376,-0.184478 -0.331291,-0.103948 -0.491199,-0.118672 z"
       id="path4230"
       inkscape:connector-curvature="0" />
    <rect
       style="color:#000000;display:inline;overflow:visible;visibility:visible;opacity:1;fill:none;fill-opacity:1;fill-rule:evenodd;stroke:#000000;stroke-width:3;stroke-linecap:round;stroke-linejoin:round;stroke-miterlimit:4;stroke-dasharray:none;stroke-dashoffset:0;stroke-opacity:1;marker:none;enable-background:accumulate"
       id="rect4203"
       width="27.24328"
       height="42.603851"
       x="16.378359"
       y="8.6980743"
       ry="13.62164" />
    <rect
       style="color:#000000;display:inline;overflow:visible;visibility:visible;opacity:1;fill:#000000;fill-opacity:1;fill-rule:evenodd;stroke:none;stroke-width:3;stroke-linecap:round;stroke-linejoin:round;stroke-miterlimit:4;stroke-dasharray:none;stroke-dashoffset:0;stroke-opacity:1;marker:none;enable-background:accumulate"
       id="rect4207"
       width="28.571428"
       height="2"
       x="15.714286"
       y="23.5"
       rx="0"
       ry="0" />
    <rect
       ry="0"
       rx="0"
       y="8.8392859"
       x="29"
       height="16.660715"
       width="2"
       id="rect4209"
       style="color:#000000;display:inline;overflow:visible;visibility:visible;opacity:1;fill:#000000;fill-opacity:1;fill-rule:evenodd;stroke:none;stroke-width:3;stroke-linecap:round;stroke-linejoin:round;stroke-miterlimit:4;stroke-dasharray:none;stroke-dashoffset:0;stroke-opacity:1;marker:none;enable-background:accumulate" />
    <rect
       ry="3.8073776"
       y="16.992338"
       x="26.192621"
       height="11.90818"
       width="7.6147552"
       id="rect4226"
       style="color:#000000;display:inline;overflow:visible;visibility:visible;opacity:1;fill:#007fee;fill-opacity:1;fill-rule:evenodd;stroke:#000000;stroke-width:1.5;stroke-linecap:round;stroke-linejoin:round;stroke-miterlimit:4;stroke-dasharray:none;stroke-dashoffset:0;stroke-opacity:1;marker:none;enable-background:accumulate" />
  </g>
  <g
     inkscape:groupmode="layer"
     id="layer17"
     inkscape:label="People">
    <path
       style="color:#000000;display:inline;overflow:visible;visibility:visible;opacity:1;fill:#000000;fill-opacity:1;fill-rule:evenodd;stroke:#ffffff;stroke-width:1.64949083;stroke-linecap:round;stroke-linejoin:round;stroke-miterlimit:4;stroke-dasharray:none;stroke-dashoffset:0;stroke-opacity:1;marker:none;enable-background:accumulate"
       d="m 14.733535,11.212235 a 9.000315,9.000315 0 0 0 -9.0016212,9.001624 9.000315,9.000315 0 0 0 5.4119622,8.248434 11.773667,16.744771 0 0 0 -8.1843341,15.926829 l 11.7739931,0 11.771705,0 a 11.773667,16.744771 0 0 0 -8.177465,-15.935985 9.000315,9.000315 0 0 0 5.405093,-8.239278 9.000315,9.000315 0 0 0 -8.999333,-9.001624 z"
       id="path4210-7"
       inkscape:connector-curvature="0" />
    <path
       style="color:#000000;display:inline;overflow:visible;visibility:visible;opacity:1;fill:#000000;fill-opacity:1;fill-rule:evenodd;stroke:#ffffff;stroke-width:1.64949083;stroke-linecap:round;stroke-linejoin:round;stroke-miterlimit:4;stroke-dasharray:none;stroke-dashoffset:0;stroke-opacity:1;marker:none;enable-background:accumulate"
       d="m 45.268753,11.212235 a 9.000315,9.000315 0 0 0 -9.001621,9.001624 9.000315,9.000315 0 0 0 5.411963,8.248434 11.773667,16.744771 0 0 0 -8.184335,15.926829 l 11.773993,0 11.771705,0 a 11.773667,16.744771 0 0 0 -8.177465,-15.935985 9.000315,9.000315 0 0 0 5.405093,-8.239278 9.000315,9.000315 0 0 0 -8.999333,-9.001624 z"
       id="path4210-7-6"
       inkscape:connector-curvature="0" />
    <path
       style="color:#000000;display:inline;overflow:visible;visibility:visible;opacity:1;fill:#000000;fill-opacity:1;fill-rule:evenodd;stroke:#ffffff;stroke-width:1.64949083;stroke-linecap:round;stroke-linejoin:round;stroke-miterlimit:4;stroke-dasharray:none;stroke-dashoffset:0;stroke-opacity:1;marker:none;enable-background:accumulate"
       d="m 30.001145,15.610878 a 9.000315,9.000315 0 0 0 -9.001623,9.001623 9.000315,9.000315 0 0 0 5.411963,8.248434 11.773667,16.744771 0 0 0 -8.184335,15.92683 l 11.773995,0 11.771705,0 a 11.773667,16.744771 0 0 0 -8.177466,-15.935986 9.000315,9.000315 0 0 0 5.405094,-8.239278 9.000315,9.000315 0 0 0 -8.999333,-9.001623 z"
       id="path4210"
       inkscape:connector-curvature="0" />
  </g>
</svg>
