<?xml version="1.0" encoding="UTF-8" standalone="no"?>
<!-- Created with Inkscape (http://www.inkscape.org/) -->

<svg
   xmlns:dc="http://purl.org/dc/elements/1.1/"
   xmlns:cc="http://creativecommons.org/ns#"
   xmlns:rdf="http://www.w3.org/1999/02/22-rdf-syntax-ns#"
   xmlns:svg="http://www.w3.org/2000/svg"
   xmlns="http://www.w3.org/2000/svg"
   xmlns:sodipodi="http://sodipodi.sourceforge.net/DTD/sodipodi-0.dtd"
   xmlns:inkscape="http://www.inkscape.org/namespaces/inkscape"
   width="1000"
   height="300"
   viewBox="0 0 999.99999 300"
   id="svg2"
   version="1.1"
   inkscape:version="0.91 r13725"
   sodipodi:docname="splash.svg"
   inkscape:export-filename="C:\Users\DXsmiley\Code\SDD\static\images\splash.png"
   inkscape:export-xdpi="90"
   inkscape:export-ydpi="90">
  <defs
     id="defs4">
    <inkscape:path-effect
       effect="powerstroke"
       id="path-effect8084"
       is_visible="true"
       offset_points="0,0.5"
       sort_points="true"
       interpolator_type="CubicBezierJohan"
       interpolator_beta="0.2"
       start_linecap_type="zerowidth"
       linejoin_type="round"
       miter_limit="4"
       end_linecap_type="zerowidth"
       cusp_linecap_type="round" />
    <inkscape:path-effect
       effect="spiro"
       id="path-effect8082"
       is_visible="true" />
    <inkscape:path-effect
       effect="spiro"
       id="path-effect8078"
       is_visible="true" />
    <inkscape:path-effect
       effect="spiro"
       id="path-effect8074"
       is_visible="true" />
  </defs>
  <sodipodi:namedview
     id="base"
     pagecolor="#ffffff"
     bordercolor="#666666"
     borderopacity="1.0"
     inkscape:pageopacity="0.0"
     inkscape:pageshadow="2"
     inkscape:zoom="0.98994949"
     inkscape:cx="610.99119"
     inkscape:cy="27.196944"
     inkscape:document-units="px"
     inkscape:current-layer="layer1"
     showgrid="false"
     units="px"
     inkscape:window-width="1920"
     inkscape:window-height="1017"
     inkscape:window-x="-8"
     inkscape:window-y="-8"
     inkscape:window-maximized="1" />
  <metadata
     id="metadata7">
    <rdf:RDF>
      <cc:Work
         rdf:about="">
        <dc:format>image/svg+xml</dc:format>
        <dc:type
           rdf:resource="http://purl.org/dc/dcmitype/StillImage" />
        <dc:title></dc:title>
      </cc:Work>
    </rdf:RDF>
  </metadata>
  <g
     inkscape:groupmode="layer"
     id="layer1"
     inkscape:label="Layer 1"
     style="display:none;opacity:0.06400003"
     sodipodi:insensitive="true">
    <ellipse
       style="color:#000000;display:inline;overflow:visible;visibility:visible;opacity:1;fill:#000000;fill-opacity:1;fill-rule:nonzero;stroke:none;stroke-width:0.80000001;stroke-linecap:butt;stroke-linejoin:miter;stroke-miterlimit:4;stroke-dasharray:none;stroke-dashoffset:0;stroke-opacity:1;marker:none;enable-background:accumulate"
       id="path8106"
       cx="138.32365"
       cy="88.373039"
       rx="37.123108"
       ry="26.769043" />
    <ellipse
       style="color:#000000;display:inline;overflow:visible;visibility:visible;opacity:1;fill:#000000;fill-opacity:1;fill-rule:nonzero;stroke:none;stroke-width:0.80000001;stroke-linecap:butt;stroke-linejoin:miter;stroke-miterlimit:4;stroke-dasharray:none;stroke-dashoffset:0;stroke-opacity:1;marker:none;enable-background:accumulate"
       id="path8108"
       cx="111.30208"
       cy="169.94286"
       rx="44.95179"
       ry="76.519058" />
    <ellipse
       style="color:#000000;display:inline;overflow:visible;visibility:visible;opacity:1;fill:#000000;fill-opacity:1;fill-rule:nonzero;stroke:none;stroke-width:0.80000001;stroke-linecap:butt;stroke-linejoin:miter;stroke-miterlimit:4;stroke-dasharray:none;stroke-dashoffset:0;stroke-opacity:1;marker:none;enable-background:accumulate"
       id="path8110"
       cx="228.22723"
       cy="229.7944"
       rx="10.859139"
       ry="18.182745" />
    <ellipse
       style="color:#000000;display:inline;overflow:visible;visibility:visible;opacity:1;fill:#000000;fill-opacity:1;fill-rule:nonzero;stroke:none;stroke-width:0.80000001;stroke-linecap:butt;stroke-linejoin:miter;stroke-miterlimit:4;stroke-dasharray:none;stroke-dashoffset:0;stroke-opacity:1;marker:none;enable-background:accumulate"
       id="path8112"
       cx="281.76532"
       cy="232.31978"
       rx="8.3337584"
       ry="16.162441" />
    <ellipse
       style="color:#000000;display:inline;overflow:visible;visibility:visible;opacity:1;fill:#000000;fill-opacity:1;fill-rule:nonzero;stroke:none;stroke-width:0.80000001;stroke-linecap:butt;stroke-linejoin:miter;stroke-miterlimit:4;stroke-dasharray:none;stroke-dashoffset:0;stroke-opacity:1;marker:none;enable-background:accumulate"
       id="path8114"
       cx="262.06735"
       cy="195.19667"
       rx="10.354064"
       ry="13.384521" />
  </g>
  <g
     inkscape:groupmode="layer"
     id="layer5"
     inkscape:label="Layer 5" />
  <g
     inkscape:groupmode="layer"
     id="layer2"
     inkscape:label="Layer 2"
     style="display:inline;opacity:0.6">
    <path
       style="color:#000000;display:inline;overflow:visible;visibility:visible;opacity:1;fill:#000000;fill-opacity:1;fill-rule:nonzero;stroke:none;stroke-width:0.80000001;stroke-linecap:butt;stroke-linejoin:miter;stroke-miterlimit:4;stroke-dasharray:none;stroke-dashoffset:0;stroke-opacity:1;marker:none;enable-background:accumulate"
       id="path8116"
       d="m 178.56152,98.540338 c -0.65957,-1.741517 -1.27442,-3.499053 -1.88929,-5.256657 -0.84482,-2.558613 -1.93939,-5.019122 -3.08696,-7.45305 -1.15353,-2.371294 -2.40654,-4.692962 -3.72035,-6.97885 -0.90573,-1.588959 -1.90406,-3.117477 -3.15683,-4.453065 -2.18667,-2.103388 -4.75807,-3.75247 -7.31897,-5.356776 -2.18682,-1.379474 -4.43949,-2.650909 -6.79746,-3.713115 -1.78617,-0.742259 -3.68668,-1.129247 -5.5744,-1.51081 -2.02107,-0.396509 -4.05981,-0.693581 -6.10951,-0.891645 -1.48037,-0.164562 -2.96771,-0.240382 -4.45575,-0.28787 -1.30185,-0.03583 -2.60428,-0.03147 -3.90636,-0.01491 -0.98879,0.01745 -1.95446,0.226659 -2.91252,0.452044 -0.98021,0.230343 -1.94731,0.514931 -2.89452,0.855962 -0.89696,0.355255 -1.76889,0.770431 -2.65139,1.159939 -0.8374,0.381918 -1.65737,0.796263 -2.47197,1.223891 -1.19841,0.656854 -2.41391,1.279748 -3.63134,1.900257 -1.0368,0.537584 -2.10951,1.001143 -3.18272,1.460183 -0.79302,0.345861 -1.59594,0.667156 -2.40053,0.984736 -0.66759,0.257191 -1.32505,0.542963 -1.97267,0.847091 -0.66996,0.336402 -1.31969,0.712603 -1.95916,1.10352 -0.82535,0.492102 -1.65061,0.984241 -2.4695,1.487086 -1.07483,0.671717 -2.1376,1.36263 -3.17569,2.089985 -0.77269,0.533823 -1.54546,1.06662 -2.30595,1.617733 -0.72468,0.489754 -1.32506,1.124652 -1.9383,1.741143 -0.65073,0.669766 -1.27792,1.361696 -1.92111,2.038515 -0.43173,0.426885 -0.9096,0.801219 -1.35842,1.209239 -0.57955,0.555576 -1.15301,1.11719 -1.74224,1.662603 -0.53434,0.500149 -1.05966,1.009824 -1.59349,1.510462 -0.48034,0.44081 -0.87162,0.955314 -1.24178,1.488528 -0.88116,1.274061 -1.60356,2.64643 -2.33825,4.007321 -1.02915,1.851868 -1.93114,3.766871 -2.69567,5.741858 -0.83585,2.29244 -1.45628,4.656614 -2.03972,7.023634 -0.50588,2.06157 -0.98114,4.13152 -1.36043,6.22039 -0.25994,1.33901 -0.45181,2.68904 -0.56225,4.04835 -0.0847,0.87682 -0.17841,1.75266 -0.24374,2.63121 -0.0264,0.78475 -0.1202,1.56407 -0.20044,2.3445 -0.10372,1.12354 -0.15533,2.25065 -0.24047,3.37567 -0.13743,1.64013 -0.19522,3.28512 -0.29141,4.92774 -0.11011,1.76713 -0.21406,3.5342 -0.36793,5.29811 -0.14423,1.53574 -0.26398,3.07339 -0.34279,4.61386 -0.0783,1.53805 -0.26115,3.06731 -0.43393,4.59678 -0.14897,1.27837 -0.24047,2.56206 -0.38051,3.84128 -0.10196,1.06808 -0.23017,2.13252 -0.36553,3.19676 -0.20742,1.24746 -0.35812,2.5027 -0.52687,3.75556 -0.16181,1.38911 -0.38025,2.77038 -0.57193,4.15545 -0.16446,0.9993 -0.33031,1.99994 -0.59586,2.978 -0.18465,0.62095 -0.34381,1.24847 -0.50535,1.87562 -0.25058,1.06776 -0.48728,2.13826 -0.76369,3.19971 -0.24263,0.88661 -0.43892,1.78498 -0.61209,2.68743 -0.19288,1.13775 -0.35922,2.27953 -0.5411,3.41907 -0.14901,1.1265 -0.3682,2.24041 -0.58861,3.35447 -0.14816,0.70969 -0.21961,1.43119 -0.32467,2.1477 -0.11673,0.78917 -0.18117,1.58436 -0.22452,2.38051 -0.0411,0.85851 -0.0422,1.71817 -0.0378,2.57743 -0.0307,0.97631 -0.12412,1.94934 -0.20052,2.92282 -0.041,0.83746 -0.19565,1.66263 -0.33047,2.48842 -0.12187,0.63807 -0.31848,1.25587 -0.56708,1.85489 -0.42776,0.91353 -0.98367,1.75908 -1.47601,2.6383 -0.90661,1.63827 -1.76109,3.30499 -2.60333,4.97708 -0.64593,1.29304 -1.29264,2.58539 -1.99048,3.85138 -0.60248,1.05978 -1.39782,1.99032 -2.1518,2.94267 -1.29926,1.6348 -2.5443,3.31177 -3.75081,5.01591 -1.2865,1.85269 -2.5045,3.75141 -3.75801,5.62634 -1.30497,1.96008 -2.6652,3.88204 -4.07833,5.76537 -1.12934,1.49964 -2.41745,2.86688 -3.74791,4.18747 -0.83044,0.80931 -1.69788,1.57918 -2.55069,2.36455 -1.14565,1.12804 -2.27355,2.27402 -3.40776,3.41357 -1.12631,1.14043 -2.23896,2.2944 -3.36841,3.4317 -0.51045,0.55916 -1.07575,1.06953 -1.55598,1.65577 -0.32873,0.42857 -0.67852,0.83615 -1.05301,1.22547 -0.77965,0.77246 -1.55623,1.54761 -2.32936,2.32658 -0.67539,0.70861 -1.34875,1.41679 -2.06818,2.08079 -0.4457,0.41497 -0.9694,0.71381 -1.512131,0.97902 -0.08386,-0.0305 -1.073565,0.5323 -0.796466,0.34055 0.01601,-0.20683 -0.0174,-0.42363 0.04803,-0.62049 0.01591,-0.0479 0.08987,0.0461 0.136487,0.0653 0.06403,0.0265 0.130183,0.0475 0.195103,0.0717 0.27835,0.10375 0.555076,0.19919 0.839701,0.28449 0.650876,0.18691 1.325326,0.25112 1.998526,0.29046 0.7291,0.0325 1.45906,0.0118 2.18816,-0.009 0.71862,-0.0178 1.43557,-0.031 2.15068,-0.10657 1.03566,-0.13274 2.02947,-0.45431 3.01885,-0.77429 1.68569,-0.51017 3.35203,-1.08036 5.0088,-1.67696 1.69737,-0.59127 3.40394,-1.15529 5.10124,-1.74712 1.9485,-0.67023 3.87991,-1.3888 5.82466,-2.06992 2.26003,-0.78314 4.53345,-1.52654 6.80412,-2.27795 1.59712,-0.50771 3.19049,-1.02768 4.80337,-1.4837 1.22907,-0.34534 2.46055,-0.68158 3.69112,-1.02157 1.22711,-0.35455 2.45433,-0.70902 3.68426,-1.05371 0.77838,-0.21522 1.56164,-0.42115 2.3317,-0.66502 0.49273,-0.18079 1.00383,-0.29863 1.5055,-0.45001 0.56454,-0.18233 1.1508,-0.26556 1.73922,-0.32115 0.75432,-0.0705 0.85407,0.99625 0.0997,1.06678 l 0,0 c -0.51751,0.0478 -1.03329,0.11883 -1.52956,0.28016 -0.4976,0.15002 -1.00434,0.26707 -1.49308,0.44618 -0.78174,0.24497 -1.57446,0.45825 -2.36443,0.67475 -1.23121,0.34495 -2.45964,0.69997 -3.68804,1.05477 -1.22858,0.33939 -2.45806,0.6751 -3.68512,1.01989 -1.59785,0.4511 -3.1758,0.96758 -4.75808,1.46981 -2.26481,0.74945 -4.53236,1.49095 -6.78658,2.27198 -1.94523,0.68122 -3.87704,1.4001 -5.82604,2.0704 -1.69389,0.59064 -3.39697,1.1537 -5.09103,1.7435 -1.66789,0.60047 -3.34527,1.17476 -5.04221,1.68837 -1.06011,0.34254 -2.12614,0.68266 -3.23636,0.82036 -0.74251,0.0777 -1.48669,0.0949 -2.23281,0.11203 -0.76015,0.0212 -1.52121,0.0421 -2.28131,0.007 -0.75644,-0.0452 -1.51366,-0.12153 -2.244273,-0.3341 -0.23478,-0.071 -1.411105,-0.40946 -1.510551,-0.59431 -0.142337,-0.26457 -0.178602,-0.57371 -0.267904,-0.86056 0.327574,-0.35676 0.750549,-0.50226 1.194178,-0.67522 0.449194,-0.2195 0.887086,-0.45871 1.255871,-0.80373 0.707939,-0.65334 1.369169,-1.35154 2.034399,-2.04821 0.76935,-0.7751 1.54178,-1.54675 2.31801,-2.31498 0.35597,-0.36925 0.68654,-0.75693 0.99835,-1.16417 0.50508,-0.60866 1.08469,-1.14959 1.62225,-1.72894 1.12987,-1.13741 2.24248,-2.29195 3.3692,-3.4325 1.14519,-1.15053 2.28358,-2.30801 3.44135,-3.44588 0.84303,-0.77632 1.70043,-1.53741 2.52179,-2.33692 1.29387,-1.28368 2.54723,-2.61219 3.64563,-4.07002 1.40156,-1.8677 2.75039,-3.77392 4.04461,-5.7178 1.25885,-1.88287 2.48187,-3.78975 3.77429,-5.64999 1.21773,-1.71961 2.47396,-3.41209 3.78519,-5.06181 0.71721,-0.90591 1.47611,-1.78958 2.05356,-2.79491 0.69159,-1.25425 1.33165,-2.53508 1.97188,-3.8161 0.84939,-1.6861 1.71107,-3.36682 2.62548,-5.01875 0.47268,-0.8433 1.00266,-1.65598 1.4221,-2.52758 0.21925,-0.52085 0.38778,-1.05974 0.49829,-1.61457 0.13003,-0.79634 0.28084,-1.59194 0.31976,-2.39961 0.0741,-0.94378 0.16398,-1.88709 0.19725,-2.83345 -0.005,-0.8806 -0.003,-1.76161 0.0394,-2.64143 0.0454,-0.82859 0.11263,-1.65619 0.23426,-2.47751 0.10766,-0.73406 0.18112,-1.47323 0.3337,-2.20019 0.21785,-1.10109 0.43486,-2.20192 0.58163,-3.3154 0.18367,-1.15072 0.35144,-2.30374 0.54699,-3.45255 0.17829,-0.92503 0.37842,-1.84624 0.62741,-2.75514 0.2763,-1.06051 0.5117,-2.13037 0.76299,-3.19701 0.16289,-0.63181 0.32311,-1.26409 0.50908,-1.8897 0.2549,-0.93345 0.40892,-1.88986 0.56835,-2.84345 0.19156,-1.3838 0.40977,-2.76381 0.57141,-4.15165 0.16859,-1.25019 0.3183,-2.5029 0.52583,-3.74765 0.13459,-1.05807 0.26211,-2.11629 0.36334,-3.1782 0.14025,-1.28041 0.23135,-2.56539 0.38091,-3.84492 0.17033,-1.50771 0.3512,-3.01515 0.42857,-4.5313 0.0796,-1.55326 0.19992,-3.10371 0.34543,-4.65219 0.15305,-1.75378 0.25611,-3.51072 0.36572,-5.26768 0.0967,-1.64867 0.15447,-3.29974 0.29263,-4.9459 0.0859,-1.13461 0.13751,-2.27137 0.24303,-3.40442 0.0792,-0.77046 0.17225,-1.5397 0.19778,-2.31445 0.0657,-0.88104 0.15873,-1.75945 0.24433,-2.63871 0.11401,-1.39427 0.30916,-2.77933 0.57597,-4.15285 0.38376,-2.11056 0.86271,-4.20235 1.37431,-6.28534 0.59473,-2.41129 1.22737,-4.819606 2.08098,-7.154305 0.7822,-2.016115 1.7004,-3.97288 2.75188,-5.863682 0.75382,-1.396275 1.4965,-2.803424 2.40142,-4.110037 0.41387,-0.594183 0.85357,-1.166595 1.38879,-1.658613 0.53588,-0.501776 1.06222,-1.013734 1.5985,-1.515135 0.5919,-0.547316 1.16659,-1.112321 1.74941,-1.669175 0.42982,-0.39022 0.88507,-0.750501 1.3024,-1.154478 0.64911,-0.682303 1.28099,-1.3809 1.93796,-2.055846 0.6538,-0.65725 1.29762,-1.330021 2.06921,-1.853106 0.76515,-0.554469 1.54254,-1.090679 2.31998,-1.627723 1.05596,-0.739418 2.13642,-1.442655 3.22975,-2.125474 0.81977,-0.503299 1.64575,-0.996147 2.47201,-1.488624 0.67335,-0.410228 1.3561,-0.807216 2.06211,-1.158873 0.66811,-0.313298 1.34602,-0.608323 2.0345,-0.873767 0.79523,-0.313808 1.58879,-0.631308 2.37252,-0.973223 1.05117,-0.44957 2.10209,-0.903039 3.11753,-1.429672 1.21362,-0.618512 2.42527,-1.239489 3.61988,-1.894329 0.83604,-0.438844 1.67787,-0.863678 2.53737,-1.255438 0.90548,-0.399568 1.79979,-0.826346 2.72131,-1.187906 0.98586,-0.354344 1.99195,-0.651327 3.01204,-0.890786 1.03402,-0.242832 2.07708,-0.463251 3.14405,-0.48038 1.31804,-0.01674 2.63642,-0.02104 3.95421,0.01537 1.51106,0.04838 3.02141,0.125477 4.52472,0.292303 2.08627,0.20214 4.16153,0.503797 6.21864,0.907915 1.96611,0.397631 3.94435,0.805301 5.80243,1.584238 2.40166,1.083631 4.69851,2.375509 6.92601,3.781958 2.63893,1.654028 5.28736,3.356582 7.53298,5.533253 1.30369,1.40058 2.36077,2.986372 3.30286,4.650626 1.32807,2.311079 2.59486,4.658232 3.76053,7.055828 1.16324,2.467609 2.27205,4.962473 3.12916,7.556144 0.61343,1.753477 1.22684,3.50688 1.88488,5.2443 0.25891,0.712001 -0.74801,1.078155 -1.00692,0.366154 z"
       inkscape:connector-curvature="0" />
    <path
       style="color:#000000;display:inline;overflow:visible;visibility:visible;opacity:1;fill:#000000;fill-opacity:1;fill-rule:nonzero;stroke:none;stroke-width:0.80000001;stroke-linecap:butt;stroke-linejoin:miter;stroke-miterlimit:4;stroke-dasharray:none;stroke-dashoffset:0;stroke-opacity:1;marker:none;enable-background:accumulate"
       id="path8120"
       d="m 179.2176,99.479379 c -0.95285,0.358922 -1.90729,0.715171 -2.87073,1.044901 -1.76812,0.57569 -3.53506,1.15242 -5.28924,1.7695 -1.36767,0.47638 -2.73907,0.94983 -4.13936,1.32199 -1.32875,0.33024 -2.67494,0.5866 -4.02115,0.83431 -1.30099,0.21817 -2.60245,0.43393 -3.91153,0.59797 -1.08897,0.13348 -2.18446,0.19466 -3.28078,0.21656 -0.81998,0.01 -1.63975,-0.0178 -2.45931,-0.0401 -0.84089,-0.0495 -1.67642,-0.15685 -2.49795,-0.34212 -0.64271,-0.17953 -1.29877,-0.29643 -1.95179,-0.42887 -1.01532,-0.23092 -2.03067,-0.46401 -3.03689,-0.73206 -0.9102,-0.23553 -1.80314,-0.52943 -2.678,-0.87293 -0.65093,-0.27276 -1.30938,-0.52093 -1.97982,-0.74094 -1.12869,-0.36269 -2.27396,-0.66859 -3.41136,-1.00212 -0.94144,-0.2882 -1.89704,-0.52187 -2.87235,-0.65754 -0.66331,-0.0891 -1.32683,-0.0832 -1.98795,0.009 -0.69469,0.0812 -1.36082,0.29099 -2.03115,0.47955 -0.4409,0.11468 -0.22981,0.0545 -0.63386,0.1784 -0.72469,0.22093 -1.03713,-0.80393 -0.31245,-1.02486 l 0,0 c 0.44036,-0.133609 0.22157,-0.0722 0.6562,-0.184942 0.71784,-0.201886 1.43229,-0.422499 2.17603,-0.509685 0.75897,-0.102488 1.52095,-0.111755 2.28184,-0.0081 1.02668,0.144785 2.03399,0.385928 3.02519,0.690457 1.14832,0.33675 2.30461,0.64558 3.444,1.01227 0.69,0.22653 1.36804,0.48139 2.03805,0.76193 0.83637,0.32999 1.69136,0.60882 2.56182,0.83471 0.98527,0.26328 1.98008,0.49005 2.9742,0.71734 0.6606,0.1347 1.32471,0.25207 1.975,0.43386 0.75305,0.17143 1.51946,0.26719 2.29026,0.31604 0.80282,0.0217 1.60583,0.049 2.40906,0.0399 1.05894,-0.0208 2.11707,-0.0798 3.16893,-0.20848 1.2888,-0.16113 2.56991,-0.37436 3.85077,-0.58858 1.31909,-0.2426 2.63816,-0.49364 3.94035,-0.81619 1.37341,-0.36335 2.71703,-0.83156 4.05847,-1.29708 1.75713,-0.61808 3.52691,-1.1962 5.29809,-1.772564 0.93817,-0.320536 1.86674,-0.668943 2.79535,-1.015911 0.69636,-0.298439 1.11841,0.68636 0.42206,0.984798 z"
       inkscape:connector-curvature="0" />
    <path
       style="color:#000000;display:inline;overflow:visible;visibility:visible;opacity:1;fill:#000000;fill-opacity:1;fill-rule:nonzero;stroke:none;stroke-width:0.80000001;stroke-linecap:butt;stroke-linejoin:miter;stroke-miterlimit:4;stroke-dasharray:none;stroke-dashoffset:0;stroke-opacity:1;marker:none;enable-background:accumulate"
       id="path8167"
       d="m 82.03717,229.83614 c -0.24814,0.61059 -0.41375,1.24579 -0.57882,1.87962 -0.24168,0.95157 -0.37688,1.92183 -0.4694,2.89507 -0.0974,0.99801 -0.14204,1.99954 -0.17236,3.00106 -0.029,0.76975 -0.005,1.54008 -0.0199,2.3099 -0.0174,0.52636 -0.062,1.05143 -0.0975,1.57688 -0.0281,0.41569 -0.0347,0.83189 -0.0799,1.24638 -0.0436,0.32879 -0.0904,0.65706 -0.12212,0.9871 -0.0351,0.27792 -0.0305,0.55315 0.008,0.82978 0.0251,0.20609 0.10261,0.40187 0.16675,0.59915 0.18488,0.56879 -0.66883,0.81515 -0.85372,0.24635 l 0,0 c -0.0788,-0.24241 -0.16914,-0.48375 -0.19846,-0.73726 -0.0458,-0.33778 -0.0537,-0.67516 -0.0121,-1.01425 0.0323,-0.3335 0.0783,-0.66538 0.12319,-0.99754 0.0448,-0.40328 0.0477,-0.80861 0.077,-1.21303 0.0346,-0.51277 0.078,-1.02517 0.0958,-1.5388 0.0153,-0.77272 -0.01,-1.54603 0.0201,-2.31868 0.0309,-1.01864 0.0765,-2.03726 0.17557,-3.05234 0.0971,-1.01538 0.23873,-2.02764 0.49156,-3.02033 0.17092,-0.65583 0.34299,-1.313 0.5989,-1.94509 0.19965,-0.56434 1.04669,-0.29831 0.84704,0.26603 z"
       inkscape:connector-curvature="0" />
    <path
       style="color:#000000;display:inline;overflow:visible;visibility:visible;opacity:1;fill:#000000;fill-opacity:1;fill-rule:nonzero;stroke:none;stroke-width:0.80000001;stroke-linecap:butt;stroke-linejoin:miter;stroke-miterlimit:4;stroke-dasharray:none;stroke-dashoffset:0;stroke-opacity:1;marker:none;enable-background:accumulate"
       id="path8175"
       d="m 160.28461,252.72589 c -0.17574,-1.4176 0.0153,-2.84467 0.15539,-4.25609 0.64133,-5.92101 1.14019,-11.85629 1.64946,-17.78985 0.80373,-8.90391 1.4204,-17.82231 1.95755,-26.74586 0.45826,-7.74214 0.68027,-15.49507 0.78326,-23.24931 0.049,-5.43522 0.0185,-10.87122 -0.0937,-16.30546 -0.10803,-3.97784 -0.21308,-7.95596 -0.34889,-11.93297 -0.10512,-3.05311 -0.25318,-6.10489 -0.24298,-9.16037 0.0657,-2.83297 0.34695,-5.65547 0.58473,-8.47768 0.19871,-2.24728 0.34505,-4.49846 0.42765,-6.75298 0.0541,-1.63908 0.041,-3.27919 0.0175,-4.91866 -0.0376,-1.46417 0.0144,-2.92867 0.0606,-4.39201 0.0463,-1.35646 0.0834,-2.71317 0.10924,-4.07018 0.0165,-1.19298 0.0765,-2.38579 0.16566,-3.57546 0.0854,-1.23194 0.2441,-2.45582 0.43419,-3.6753 0.1744,-1.079 0.47268,-2.13015 0.79838,-3.17116 0.15313,-0.44648 0.32593,-0.88571 0.52655,-1.31266 0.30662,-0.64784 1.21897,-0.2124 0.91235,0.43545 l 0,0 c -0.183,0.38325 -0.33407,0.78073 -0.47521,1.18133 -0.31079,0.99286 -0.59711,1.9949 -0.76408,3.02397 -0.18604,1.19271 -0.34155,2.3897 -0.42489,3.59466 -0.0881,1.17069 -0.14659,2.34459 -0.16298,3.51857 -0.0259,1.36126 -0.0631,2.72225 -0.10956,4.08297 -0.0458,1.44775 -0.0975,2.89664 -0.0602,4.34521 0.0238,1.65679 0.0367,3.31422 -0.0181,4.9706 -0.0833,2.27059 -0.23038,4.53786 -0.43056,6.80118 -0.23548,2.79494 -0.51419,5.59012 -0.58114,8.39565 -0.0107,3.04271 0.13847,6.08174 0.24239,9.12211 0.13593,3.98158 0.24118,7.96428 0.34926,11.94671 0.1124,5.44575 0.14306,10.89327 0.0939,16.34001 -0.10326,7.77014 -0.32576,15.53897 -0.78501,23.29698 -0.53769,8.9322 -1.15497,17.85924 -1.95943,26.77176 -0.50968,5.93812 -1.00894,11.87793 -1.65073,17.80349 -0.13291,1.33585 -0.3204,2.68729 -0.1582,4.02952 0.0886,0.71175 -0.91376,0.83758 -1.00235,0.12583 z"
       inkscape:connector-curvature="0" />
    <path
       style="color:#000000;display:inline;overflow:visible;visibility:visible;opacity:1;fill:#000000;fill-opacity:1;fill-rule:nonzero;stroke:none;stroke-width:0.80000001;stroke-linecap:butt;stroke-linejoin:miter;stroke-miterlimit:4;stroke-dasharray:none;stroke-dashoffset:0;stroke-opacity:1;marker:none;enable-background:accumulate"
       id="path8179"
       d="m 160.15759,252.87218 c -0.85931,-0.57311 -1.70588,-1.1637 -2.54753,-1.7619 -1.68606,-1.17871 -3.35582,-2.37892 -5.00634,-3.60595 -1.84045,-1.40517 -3.64775,-2.85208 -5.48754,-4.25813 -1.82171,-1.37914 -3.71942,-2.65443 -5.6185,-3.92546 -1.64485,-1.1144 -3.33416,-2.16136 -5.02459,-3.20587 -1.20399,-0.7452 -2.43501,-1.44625 -3.69797,-2.08843 -0.99156,-0.50177 -2.02864,-0.90067 -3.07993,-1.25934 -0.87928,-0.29554 -1.77365,-0.54314 -2.67315,-0.76994 -0.7996,-0.20571 -1.61308,-0.34746 -2.43006,-0.46427 -0.89578,-0.1174 -1.79545,-0.2002 -2.69224,-0.30945 -0.75489,-0.0962 -1.51011,-0.18628 -2.26976,-0.2349 -0.68822,-0.0688 -1.36735,-0.0361 -2.04704,0.0803 -1.10376,0.21171 -2.18769,0.512 -3.27486,0.79317 -0.93709,0.23278 -1.87317,0.46977 -2.80453,0.72427 -0.75612,0.1968 -1.50372,0.42279 -2.25254,0.64471 -0.79827,0.2414 -1.58305,0.52293 -2.36679,0.80641 -1.02822,0.38871 -2.05599,0.77884 -3.0918,1.14736 -0.89561,0.30443 -1.79597,0.59534 -2.69661,0.88491 -0.71388,0.23132 -1.42306,0.47597 -2.13406,0.71564 -0.64118,0.22142 -1.2741,0.46493 -1.91106,0.69773 -0.58177,0.21445 -1.16012,0.43761 -1.74117,0.65389 -0.51985,0.18247 -1.03217,0.38544 -1.54429,0.58809 -0.56545,0.2093 -1.1263,0.43039 -1.69098,0.64169 -0.60045,0.2325 -1.19009,0.49172 -1.77906,0.7512 -0.68657,0.30132 -1.3709,0.60706 -2.05077,0.9229 -0.57438,0.27663 -1.13671,0.57742 -1.69982,0.87583 -0.46106,0.24865 -0.90532,0.52496 -1.34816,0.80364 -0.40438,0.2487 -0.81106,0.49339 -1.21925,0.73592 -0.38805,0.23664 -0.77514,0.47522 -1.15026,0.73165 -0.36829,0.26832 -0.73518,0.53893 -1.09182,0.82238 -0.36834,0.28372 -0.73491,0.57021 -1.11632,0.83658 -0.58976,0.41092 -1.17635,-0.41534 -0.5866,-0.82625 l 0,0 c 0.36469,-0.25341 0.71323,-0.52882 1.06548,-0.79876 0.37627,-0.29813 0.76202,-0.58444 1.15104,-0.86598 0.39323,-0.26766 0.7974,-0.51898 1.20412,-0.76597 0.40073,-0.23797 0.79995,-0.47813 1.19689,-0.72225 0.46427,-0.29214 0.93043,-0.58125 1.41393,-0.84168 0.57889,-0.30677 1.15707,-0.61586 1.74784,-0.89969 0.68604,-0.31871 1.37659,-0.62725 2.06938,-0.93132 0.60681,-0.26731 1.21437,-0.53422 1.8332,-0.77324 0.55874,-0.20891 1.11351,-0.42796 1.67305,-0.63479 0.51866,-0.20509 1.03744,-0.41074 1.56386,-0.59559 0.58298,-0.21686 1.16317,-0.44089 1.74684,-0.65598 0.6451,-0.23567 1.28604,-0.48243 1.9355,-0.70632 0.71559,-0.24114 1.4293,-0.48737 2.14775,-0.72015 0.89066,-0.2863 1.78098,-0.5741 2.66676,-0.87481 1.03414,-0.3678 2.06005,-0.75773 3.08669,-1.14552 0.8027,-0.29034 1.6066,-0.57834 2.42428,-0.8253 0.75587,-0.22397 1.51053,-0.45198 2.27373,-0.65075 0.9359,-0.25553 1.87634,-0.49414 2.818,-0.72785 1.11586,-0.28858 2.22846,-0.59659 3.36183,-0.81169 0.7582,-0.12542 1.51638,-0.16882 2.28361,-0.0924 0.77916,0.0502 1.55396,0.14122 2.32824,0.24033 0.90392,0.11015 1.81084,0.19314 2.71366,0.31229 0.85248,0.12226 1.70134,0.27044 2.53575,0.48511 0.92664,0.23382 1.848,0.48908 2.75377,0.79382 1.09697,0.37469 2.17892,0.79188 3.21351,1.31579 1.28789,0.65549 2.54399,1.36953 3.77182,2.12992 1.70094,1.05104 3.40067,2.10466 5.05579,3.22593 1.91679,1.28291 3.83198,2.57043 5.67051,3.9627 1.83615,1.40338 3.64022,2.8471 5.47672,4.24998 1.64468,1.22272 3.30862,2.41857 4.98872,3.59314 0.83844,0.59593 1.68189,1.1841 2.53787,1.75511 0.59068,0.40962 0.006,1.23717 -0.58474,0.82755 z"
       inkscape:connector-curvature="0" />
  </g>
  <g
     inkscape:groupmode="layer"
     id="layer3"
     inkscape:label="Layer 3"
     style="opacity:0.6">
    <path
       style="color:#000000;display:inline;overflow:visible;visibility:visible;opacity:1;fill:#000000;fill-opacity:1;fill-rule:nonzero;stroke:none;stroke-width:0.80000001;stroke-linecap:butt;stroke-linejoin:miter;stroke-miterlimit:4;stroke-dasharray:none;stroke-dashoffset:0;stroke-opacity:1;marker:none;enable-background:accumulate"
       id="path8133"
       d="m 132.4445,144.99254 c 0.82134,2.09608 2.12688,3.94968 3.39931,5.78903 2.9372,4.04527 6.40688,7.65807 9.9258,11.19382 1.13305,1.26817 4.91967,4.00907 4.1781,6.06227 -0.15471,0.42836 -0.53331,0.73844 -0.79997,1.10766 -0.44273,0.2816 -0.86032,0.6073 -1.32818,0.8448 -1.15489,0.58629 -3.02308,1.18663 -4.21257,1.54899 -2.87129,0.87468 -5.78757,1.53498 -8.71703,2.17782 -5.41968,1.14412 -10.91597,1.84917 -16.43789,2.23651 -2.03678,0.13527 -4.07697,0.1418 -6.11554,0.0644 -0.8999,-0.0344 -0.85125,-1.30706 0.0486,-1.27266 l 0,0 c 1.99264,0.0767 3.98692,0.0693 5.97787,-0.0622 5.46018,-0.38205 10.89485,-1.07978 16.25405,-2.21007 2.88784,-0.63315 5.76166,-1.28479 8.59287,-2.14394 1.24728,-0.37849 2.74474,-0.86268 3.94783,-1.42702 0.3553,-0.16666 0.68137,-0.38961 1.02205,-0.58442 0.25314,-0.20897 0.72876,-0.44807 0.65124,-0.89391 -0.23482,-1.35057 -3.11745,-3.52501 -3.96423,-4.54984 -3.57194,-3.58961 -7.09221,-7.25893 -10.07065,-11.36793 -1.31975,-1.90999 -2.66893,-3.83648 -3.52233,-6.01162 -0.35475,-0.82775 0.81587,-1.32945 1.17062,-0.50169 z"
       inkscape:connector-curvature="0" />
    <path
       style="color:#000000;display:inline;overflow:visible;visibility:visible;opacity:1;fill:#000000;fill-opacity:1;fill-rule:nonzero;stroke:none;stroke-width:0.80000001;stroke-linecap:butt;stroke-linejoin:miter;stroke-miterlimit:4;stroke-dasharray:none;stroke-dashoffset:0;stroke-opacity:1;marker:none;enable-background:accumulate"
       id="path8139"
       d="m 161.71431,88.695065 c -1.93356,-0.364235 -3.87709,-0.670903 -5.82056,-0.97662 -4.1557,-0.704318 -8.32308,-1.341413 -12.46932,-2.100201 -1.32744,-0.270671 -2.67205,-0.504862 -3.96712,-0.913387 -0.35071,-0.110629 -1.00244,-0.316469 -1.26655,-0.639226 -0.14899,-0.182073 -0.19829,-0.426697 -0.29744,-0.640046 0.0479,-0.246663 0.0486,-0.507447 0.1438,-0.739989 0.41571,-1.015351 1.84624,-1.914245 2.71984,-2.509042 0.91327,-0.625777 1.89548,-1.140917 2.8204,-1.747828 0.68075,-0.445914 1.25279,-1.028529 1.89957,-1.519971 0.98943,-0.734273 1.90275,-0.792467 3.09062,-0.62308 2.12055,0.497524 4.03952,1.595741 5.88333,2.720672 1.6653,0.980751 3.11425,2.253035 4.55505,3.527449 1.118,0.941971 2.12957,1.990678 3.0856,3.09348 0.49614,0.572554 -0.31357,1.274211 -0.80972,0.701656 l 0,0 c -0.92459,-1.067438 -1.9032,-2.081965 -2.98575,-2.992612 -1.39368,-1.23282 -2.79223,-2.467272 -4.40363,-3.415593 -1.72169,-1.052649 -3.51204,-2.084867 -5.48545,-2.575723 -0.8423,-0.137449 -1.57849,-0.125264 -2.28319,0.417873 -0.66767,0.503768 -1.25132,1.111589 -1.9593,1.562083 -0.92081,0.60234 -1.89493,1.118775 -2.8054,1.737821 -0.88822,0.602112 -1.74399,1.242565 -2.43584,2.067505 -0.27747,0.230395 0.45242,0.425668 0.81926,0.541798 1.26456,0.400325 2.57849,0.627198 3.87482,0.89224 4.13742,0.757424 8.29608,1.392578 12.44292,2.095709 1.97478,0.310661 3.95007,0.620655 5.91392,0.995594 0.735,0.183748 0.47514,1.223187 -0.25986,1.039438 z"
       inkscape:connector-curvature="0" />
    <path
       style="color:#000000;display:inline;overflow:visible;visibility:visible;opacity:1;fill:#000000;fill-opacity:1;fill-rule:nonzero;stroke:none;stroke-width:0.80000001;stroke-linecap:butt;stroke-linejoin:miter;stroke-miterlimit:4;stroke-dasharray:none;stroke-dashoffset:0;stroke-opacity:1;marker:none;enable-background:accumulate"
       id="path8141"
       d="m 175.88097,100.94347 c 0.17012,0.83913 0.19581,1.6961 0.14995,2.54829 -0.0726,0.61266 -0.17991,1.43603 -0.82647,1.73054 -0.1398,0.0637 -0.29872,0.072 -0.44808,0.10794 -0.85957,-0.0315 -1.56496,-0.51965 -2.24907,-0.99044 -0.532,-0.43154 -1.09734,-0.81704 -1.65986,-1.20666 -0.0754,-0.0482 -0.15065,-0.0964 -0.22597,-0.14455 -0.63769,-0.40908 -0.0592,-1.31089 0.57852,-0.90182 l 0,0 c 0.0859,0.0552 0.17178,0.11047 0.25766,0.1657 0.56149,0.38922 1.1273,0.77265 1.65736,1.20492 0.46836,0.32281 0.93877,0.65313 1.4924,0.81182 0.21813,0.23505 0.37419,-0.74047 0.35379,-0.83769 0.0455,-0.76708 0.0184,-1.53912 -0.13401,-2.29442 -0.13688,-0.74515 0.91691,-0.93873 1.05379,-0.19358 z"
       inkscape:connector-curvature="0" />
    <path
       style="color:#000000;display:inline;overflow:visible;visibility:visible;opacity:1;fill:#000000;fill-opacity:1;fill-rule:nonzero;stroke:none;stroke-width:0.80000001;stroke-linecap:butt;stroke-linejoin:miter;stroke-miterlimit:4;stroke-dasharray:none;stroke-dashoffset:0;stroke-opacity:1;marker:none;enable-background:accumulate"
       id="path8143"
       d="m 157.83882,105.71084 c -0.97996,0.36135 -1.96735,0.70054 -2.95551,1.03866 -0.9637,0.3439 -1.94315,0.62472 -2.97124,0.52717 -0.8924,-0.15026 -1.38174,-0.76764 -1.72767,-1.54963 -0.15038,-0.38525 -0.2333,-0.79111 -0.32474,-1.19291 -0.16777,-0.7388 0.87706,-0.97607 1.04483,-0.23727 l 0,0 c 0.0767,0.33872 0.14449,0.68138 0.26476,1.00826 0.17423,0.42813 0.37468,0.80501 0.86193,0.90677 0.86061,0.12086 1.69758,-0.22294 2.50531,-0.47613 0.98999,-0.33867 1.97904,-0.67882 2.96092,-1.04051 0.71812,-0.2414 1.05954,0.77417 0.34141,1.01559 z"
       inkscape:connector-curvature="0" />
    <path
       style="color:#000000;display:inline;overflow:visible;visibility:visible;opacity:1;fill:#000000;fill-opacity:1;fill-rule:nonzero;stroke:none;stroke-width:0.80000001;stroke-linecap:butt;stroke-linejoin:miter;stroke-miterlimit:4;stroke-dasharray:none;stroke-dashoffset:0;stroke-opacity:1;marker:none;enable-background:accumulate"
       id="path8145"
       d="m 140.3041,102.07044 c -0.7553,0.6823 -1.57434,1.28298 -2.49144,1.72584 -1.02891,0.36037 -1.75079,0.19178 -2.35654,-0.72235 -0.35025,-0.63499 -0.31781,-1.37009 -0.47925,-2.05755 -0.0563,-0.25231 -0.18049,-0.46458 -0.32133,-0.6762 -0.4061,-0.639575 0.49839,-1.2139 0.9045,-0.574325 l 0,0 c 0.19728,0.319945 0.38051,0.639135 0.46137,1.011995 0.12962,0.58019 0.12725,1.1895 0.35253,1.74331 0.19195,0.42963 0.55205,0.45715 0.97868,0.30747 0.83017,-0.38679 1.55388,-0.9511 2.23704,-1.55666 0.56458,-0.5052 1.27903,0.29326 0.71445,0.79845 z"
       inkscape:connector-curvature="0" />
    <path
       style="color:#000000;display:inline;overflow:visible;visibility:visible;opacity:1;fill:#000000;fill-opacity:1;fill-rule:nonzero;stroke:none;stroke-width:0.80000001;stroke-linecap:butt;stroke-linejoin:miter;stroke-miterlimit:4;stroke-dasharray:none;stroke-dashoffset:0;stroke-opacity:1;marker:none;enable-background:accumulate"
       id="path8147"
       d="m 150.77062,62.742519 c -1.23844,-1.187798 -2.60604,-2.219786 -3.99287,-3.225154 -2.39745,-1.733078 -4.92531,-3.272271 -7.52153,-4.686256 -1.29429,-0.590762 -2.85021,-1.61412 -4.30593,-0.991696 -0.65657,0.497708 -0.77678,1.319116 -0.88445,2.085221 -0.094,0.911955 -0.0129,1.827779 -0.006,2.741695 0.0199,0.562062 -0.0462,1.117665 -0.15555,1.667239 -0.15185,0.742241 -1.20154,0.527492 -1.04969,-0.214748 l 0,0 c 0.10068,-0.475018 0.14955,-0.957742 0.13385,-1.444257 -0.007,-0.967759 -0.0945,-1.937904 0.0166,-2.903103 0.1733,-1.173086 0.46623,-2.304516 1.57019,-2.93583 0.20881,-0.07151 0.41009,-0.170753 0.62641,-0.214523 1.60471,-0.324685 3.17902,0.629485 4.56679,1.269144 2.63614,1.436651 5.2035,2.999304 7.63791,4.75973 1.43218,1.038802 2.84391,2.106444 4.12151,3.334923 0.53572,0.535714 -0.2219,1.293329 -0.75761,0.757615 z"
       inkscape:connector-curvature="0" />
    <path
       style="color:#000000;display:inline;overflow:visible;visibility:visible;opacity:1;fill:#000000;fill-opacity:1;fill-rule:nonzero;stroke:none;stroke-width:0.80000001;stroke-linecap:butt;stroke-linejoin:miter;stroke-miterlimit:4;stroke-dasharray:none;stroke-dashoffset:0;stroke-opacity:1;marker:none;enable-background:accumulate"
       id="path8149"
       d="m 122.18192,63.392857 c -1.07728,0 -2.15455,0 -3.23183,0 -1.34588,0 -2.69177,0 -4.03765,0 -1.33118,0.0031 -2.66135,0.01646 -3.99102,-0.05318 -1.05619,-0.06649 -2.10966,-0.168387 -3.16464,-0.250871 -0.82567,-0.06757 -1.65411,-0.08367 -2.4821,-0.09118 -0.67641,0.02955 -1.3905,-0.0974 -2.03584,0.1535 -0.28511,0.17671 -0.24515,0.455025 -0.18434,0.746844 0.14163,0.597115 0.5005,1.099871 0.8674,1.579098 0.79212,0.892418 1.7397,1.626281 2.61992,2.427489 0.56015,0.5101 -0.16124,1.302283 -0.7214,0.792183 l 0,0 c -0.92743,-0.844933 -1.93013,-1.61583 -2.75083,-2.57042 -0.47277,-0.623318 -0.91422,-1.281798 -1.07354,-2.062054 -0.10926,-0.825277 0.08,-1.542368 0.88931,-1.924578 0.77999,-0.256207 1.58551,-0.225918 2.39908,-0.213446 0.85262,0.0078 1.70566,0.02482 2.55588,0.09439 1.04589,0.08181 2.0903,0.182607 3.13735,0.249088 1.3109,0.06919 2.62237,0.05394 3.93477,0.0517 1.34588,0 2.69177,0 4.03765,0 1.07728,0 2.15455,0 3.23183,0 0.75761,0 0.75761,1.071429 0,1.071429 z"
       inkscape:connector-curvature="0" />
    <path
       style="color:#000000;display:inline;overflow:visible;visibility:visible;opacity:1;fill:#000000;fill-opacity:1;fill-rule:nonzero;stroke:none;stroke-width:0.80000001;stroke-linecap:butt;stroke-linejoin:miter;stroke-miterlimit:4;stroke-dasharray:none;stroke-dashoffset:0;stroke-opacity:1;marker:none;enable-background:accumulate"
       id="path8151"
       d="m 97.26783,76.265333 c -0.86904,0.07965 -1.73143,0.201233 -2.59284,0.339517 -1.27636,0.178454 -2.54696,0.392987 -3.81693,0.612035 -1.73512,0.271517 -3.46202,0.590367 -5.19139,0.895538 -0.81548,0.247461 -1.8102,0.20328 -2.52831,0.712869 -0.19069,0.279134 -0.0932,0.677416 -0.0199,0.983247 0.1507,0.646753 0.4853,1.170907 0.92041,1.660056 0.87447,0.903728 1.86947,1.675614 2.87135,2.430632 0.67028,0.509955 1.40581,0.921087 2.1394,1.330477 0.66155,0.369225 0.13939,1.304802 -0.52217,0.935577 l 0,0 c -0.77621,-0.433263 -1.553,-0.87067 -2.26208,-1.410409 -1.06036,-0.799176 -2.11223,-1.618541 -3.0325,-2.58035 -0.54662,-0.631708 -0.97425,-1.311692 -1.16124,-2.137712 -0.15899,-0.776992 -0.17358,-1.557303 0.48646,-2.112203 0.88232,-0.540597 1.92701,-0.648624 2.92241,-0.867311 1.73073,-0.305396 3.459,-0.624496 5.19549,-0.896254 1.27406,-0.219679 2.54875,-0.435028 3.82922,-0.614082 0.87364,-0.140197 1.74838,-0.263881 2.62974,-0.344782 0.75176,-0.09397 0.88466,0.969184 0.13289,1.063155 z"
       inkscape:connector-curvature="0" />
    <path
       style="color:#000000;display:inline;overflow:visible;visibility:visible;opacity:1;fill:#000000;fill-opacity:1;fill-rule:nonzero;stroke:none;stroke-width:0.80000001;stroke-linecap:butt;stroke-linejoin:miter;stroke-miterlimit:4;stroke-dasharray:none;stroke-dashoffset:0;stroke-opacity:1;marker:none;enable-background:accumulate"
       id="path8153"
       d="m 83.75749,97.615245 c -0.86185,1.21963 -1.72634,2.437235 -2.58201,3.661255 -0.9362,1.32949 -1.91594,2.62766 -2.87691,3.93928 -0.47907,0.63606 -0.93053,1.29324 -1.30646,1.99579 -0.15562,0.34379 -0.50714,0.70312 -0.42881,1.10664 0.17969,0.14518 0.47307,0.17018 0.69372,0.20652 0.71101,0.0792 1.42827,0.0378 2.14074,0.003 0.53169,-0.029 0.26586,-0.0142 0.7975,-0.0442 0.75641,-0.0426 0.81665,1.02714 0.0602,1.06973 l 0,0 c -0.53575,0.0302 -0.26712,0.0153 -0.80588,0.0446 -0.79226,0.0383 -1.59032,0.0821 -2.37991,-0.0184 -0.72028,-0.13426 -1.40952,-0.38005 -1.57489,-1.18203 -0.0247,-0.63441 0.22136,-1.16199 0.55357,-1.69333 0.40196,-0.74495 0.87511,-1.447 1.38592,-2.12177 0.95635,-1.30516 1.9312,-2.59707 2.86305,-3.91991 0.85115,-1.217549 1.71066,-2.429008 2.56866,-3.641696 0.42025,-0.630374 1.31173,-0.03605 0.89148,0.594321 z"
       inkscape:connector-curvature="0" />
    <path
       style="color:#000000;display:inline;overflow:visible;visibility:visible;opacity:1;fill:#000000;fill-opacity:1;fill-rule:nonzero;stroke:none;stroke-width:0.80000001;stroke-linecap:butt;stroke-linejoin:miter;stroke-miterlimit:4;stroke-dasharray:none;stroke-dashoffset:0;stroke-opacity:1;marker:none;enable-background:accumulate"
       id="path8155"
       d="m 79.44439,122.53761 c -0.38652,0.81894 -0.78753,1.63116 -1.19727,2.43881 -0.49822,0.96869 -1.03498,1.91536 -1.61776,2.83543 -0.39418,0.67201 -0.87628,1.28413 -1.34032,1.90763 -0.41007,0.53351 -0.8665,1.02741 -1.29409,1.54649 -0.57202,0.75563 -1.00751,1.60815 -1.39945,2.46809 -0.11696,0.35626 -0.29383,0.71477 -0.30654,1.09779 -0.002,0.0654 0.034,0.24502 0.0626,0.18615 0.0132,-0.0262 -0.007,-0.058 -0.0109,-0.0869 0.0384,-0.16329 0.80361,-0.32859 0.99833,-0.4072 0.64388,-0.29712 1.32233,-0.50185 1.99894,-0.7083 0.67755,-0.21582 1.38105,-0.26984 2.08728,-0.26241 0.47757,0.0256 0.23887,0.009 0.71611,0.051 0.7546,0.0675 0.65909,1.13469 -0.0955,1.06715 l 0,0 c -0.42542,-0.0384 -0.21407,-0.0233 -0.63388,-0.0468 -0.59604,-0.009 -1.18949,0.0331 -1.76149,0.21592 -0.6482,0.19752 -1.29814,0.39265 -1.91441,0.6786 -0.67989,0.26869 -1.41196,0.59222 -2.10879,0.21142 -0.091,-0.10693 -0.20315,-0.19887 -0.2729,-0.32067 -0.37361,-0.65239 0.0628,-1.50054 0.26689,-2.12141 0.43282,-0.94334 0.91153,-1.87868 1.54686,-2.70371 0.41651,-0.50555 0.86022,-0.9871 1.26162,-1.50506 0.44819,-0.60179 0.91465,-1.19206 1.29467,-1.84121 0.5648,-0.89125 1.08447,-1.8085 1.56738,-2.74687 0.41106,-0.80978 0.81234,-1.62459 1.20065,-2.44542 0.34751,-0.67321 1.29957,-0.18174 0.95206,0.49146 z"
       inkscape:connector-curvature="0" />
    <path
       style="color:#000000;display:inline;overflow:visible;visibility:visible;opacity:1;fill:#000000;fill-opacity:1;fill-rule:nonzero;stroke:none;stroke-width:0.80000001;stroke-linecap:butt;stroke-linejoin:miter;stroke-miterlimit:4;stroke-dasharray:none;stroke-dashoffset:0;stroke-opacity:1;marker:none;enable-background:accumulate"
       id="path8185"
       d="m 262.66188,182.75917 c -0.16434,-0.002 -0.32793,-0.002 -0.49154,0.0145 -0.31136,0.0425 -0.61371,0.13686 -0.91244,0.23189 -0.29695,0.0934 -0.58807,0.20486 -0.87236,0.33155 -0.23001,0.0863 -0.42843,0.21309 -0.60742,0.37904 -0.1852,0.17696 -0.31155,0.40069 -0.4297,0.62511 -0.13026,0.26059 -0.2105,0.53488 -0.23563,0.82436 -0.0124,0.44643 0.15824,0.8478 0.36107,1.23482 0.25588,0.44285 0.57799,0.84089 0.92151,1.21783 0.23893,0.26559 0.49593,0.50028 0.8387,0.61298 0.35634,0.0812 0.72237,0.026 1.0746,-0.0489 0.40849,-0.0935 0.76465,-0.3061 1.09753,-0.55253 0.3468,-0.27672 0.61229,-0.63034 0.8486,-1.00175 0.23636,-0.37594 0.36762,-0.79578 0.46818,-1.22434 0.0894,-0.41005 0.12473,-0.82784 0.14199,-1.24621 0.013,-0.29291 -0.0178,-0.58262 -0.1031,-0.86279 -0.0596,-0.17456 -0.15424,-0.33262 -0.28562,-0.46194 -0.11614,-0.10255 -0.25931,-0.11259 -0.40643,-0.12709 -0.44403,-0.0462 -0.37869,-0.67417 0.0654,-0.62796 l 0,0 c 0.29609,0.032 0.57391,0.10027 0.7941,0.31532 0.19706,0.20797 0.35103,0.44647 0.43778,0.7218 0.10158,0.34801 0.14642,0.70576 0.12872,1.06889 -0.0192,0.45834 -0.0593,0.916 -0.15832,1.36497 -0.11796,0.4974 -0.27529,0.98357 -0.55059,1.41921 -0.27952,0.43609 -0.59545,0.84906 -1.00676,1.17061 -0.4075,0.2977 -0.84397,0.55135 -1.34234,0.66182 -0.46648,0.096 -0.94687,0.15589 -1.41386,0.0263 -0.43754,-0.16112 -0.7895,-0.43114 -1.09548,-0.7834 -0.37964,-0.41777 -0.73509,-0.8593 -1.01478,-1.35162 -0.25667,-0.4975 -0.45843,-1.01629 -0.42921,-1.5872 0.0389,-0.37066 0.13446,-0.72509 0.30584,-1.05816 0.15282,-0.28809 0.32093,-0.57103 0.56158,-0.79577 0.2308,-0.20929 0.48478,-0.37823 0.77739,-0.4903 0.30587,-0.1355 0.61835,-0.25625 0.93769,-0.35634 0.34127,-0.10805 0.68667,-0.21443 1.04297,-0.25857 0.1838,-0.0171 0.36743,-0.0208 0.55198,-0.0174 0.44643,0 0.44643,0.63135 0,0.63135 z"
       inkscape:connector-curvature="0" />
    <path
       style="color:#000000;display:inline;overflow:visible;visibility:visible;opacity:1;fill:#000000;fill-opacity:1;fill-rule:nonzero;stroke:none;stroke-width:0.80000001;stroke-linecap:butt;stroke-linejoin:miter;stroke-miterlimit:4;stroke-dasharray:none;stroke-dashoffset:0;stroke-opacity:1;marker:none;enable-background:accumulate"
       id="path8187"
       d="m 262.84711,189.17274 c -0.1696,0.45054 -0.22801,0.93432 -0.2965,1.408 -0.13194,0.94916 -0.18741,1.90637 -0.22937,2.86301 -0.0412,1.09914 -0.0411,2.19933 -0.046,3.29909 -0.003,0.86174 -0.006,1.72348 -0.008,2.58523 -0.002,0.63693 -0.003,1.27387 -0.004,1.9108 -6.8e-4,0.35808 -3.5e-4,0.18095 -9.9e-4,0.53139 -8.2e-4,0.44643 -0.63216,0.44527 -0.63135,-0.001 l 0,0 c 6.5e-4,-0.35051 3.2e-4,-0.17334 10e-4,-0.53149 0.001,-0.63705 0.003,-1.2741 0.004,-1.91116 0.002,-0.86213 0.004,-1.72427 0.008,-2.58641 0.005,-1.10807 0.005,-2.21658 0.0466,-3.32402 0.043,-0.97765 0.10007,-1.95586 0.23529,-2.92581 0.0759,-0.523 0.14395,-1.05582 0.33513,-1.55195 0.1658,-0.4145 0.75199,-0.18003 0.58619,0.23447 z"
       inkscape:connector-curvature="0" />
    <path
       style="color:#000000;display:inline;overflow:visible;visibility:visible;opacity:1;fill:#000000;fill-opacity:1;fill-rule:nonzero;stroke:none;stroke-width:0.80000001;stroke-linecap:butt;stroke-linejoin:miter;stroke-miterlimit:4;stroke-dasharray:none;stroke-dashoffset:0;stroke-opacity:1;marker:none;enable-background:accumulate"
       id="path8193"
       d="m 261.33257,193.77467 c -0.15845,-0.1587 -0.31335,-0.3215 -0.46805,-0.48407 -0.24218,-0.25266 -0.51026,-0.47854 -0.77636,-0.70522 -0.29995,-0.24449 -0.59171,-0.49873 -0.88781,-0.74783 -0.27063,-0.23163 -0.54846,-0.45438 -0.82655,-0.67688 -0.2268,-0.18477 -0.46817,-0.35036 -0.7097,-0.51501 -0.36882,-0.25153 -0.0131,-0.77313 0.35572,-0.5216 l 0,0 c 0.25474,0.1738 0.50915,0.34878 0.74845,0.54367 0.28208,0.22577 0.56394,0.45174 0.83851,0.6867 0.2971,0.24993 0.58987,0.505 0.8908,0.75035 0.2829,0.24102 0.56735,0.48176 0.82446,0.75076 0.13785,0.14508 0.27855,0.28751 0.41471,0.43412 0.34295,0.2858 -0.0612,0.77081 -0.40418,0.48501 z"
       inkscape:connector-curvature="0" />
    <path
       style="color:#000000;display:inline;overflow:visible;visibility:visible;opacity:1;fill:#000000;fill-opacity:1;fill-rule:nonzero;stroke:none;stroke-width:0.80000001;stroke-linecap:butt;stroke-linejoin:miter;stroke-miterlimit:4;stroke-dasharray:none;stroke-dashoffset:0;stroke-opacity:1;marker:none;enable-background:accumulate"
       id="path8195"
       d="m 261.81667,193.51523 c 0.15589,-0.0958 0.29846,-0.21151 0.44435,-0.32152 0.2154,-0.16375 0.43753,-0.31904 0.6647,-0.46601 0.25481,-0.16539 0.50298,-0.34084 0.75395,-0.51198 0.25565,-0.17243 0.51276,-0.34254 0.77142,-0.51043 0.22873,-0.14653 0.46131,-0.28651 0.69565,-0.42387 0.26399,-0.16005 0.52485,-0.3253 0.79081,-0.48206 0.23589,-0.14537 0.47653,-0.28269 0.71436,-0.42484 0.21692,-0.12834 0.43337,-0.25742 0.65057,-0.38533 0.3847,-0.2265 0.70502,0.31754 0.32032,0.54405 l 0,0 c -0.21604,0.12717 -0.43132,0.25552 -0.64703,0.38323 -0.239,0.1428 -0.48078,0.28086 -0.71783,0.4269 -0.26647,0.15679 -0.52735,0.32285 -0.79197,0.48274 -0.22609,0.1325 -0.45056,0.26735 -0.6712,0.40878 -0.25466,0.16522 -0.50774,0.33269 -0.75939,0.50243 -0.25534,0.17413 -0.50784,0.35259 -0.76716,0.52074 -0.21459,0.13828 -0.42378,0.28544 -0.62711,0.43976 -0.16722,0.12605 -0.33089,0.25829 -0.51121,0.36557 -0.3876,0.22149 -0.70084,-0.32667 -0.31323,-0.54816 z"
       inkscape:connector-curvature="0" />
    <path
       style="color:#000000;display:inline;overflow:visible;visibility:visible;opacity:1;fill:#000000;fill-opacity:1;fill-rule:nonzero;stroke:none;stroke-width:0.80000001;stroke-linecap:butt;stroke-linejoin:miter;stroke-miterlimit:4;stroke-dasharray:none;stroke-dashoffset:0;stroke-opacity:1;marker:none;enable-background:accumulate"
       id="path8197"
       d="m 262.87637,202.04933 c 0.12026,0.26475 0.25419,0.52295 0.38826,0.78088 0.19647,0.37556 0.37203,0.76142 0.54787,1.1469 0.18545,0.42573 0.39049,0.84303 0.60913,1.25264 0.19798,0.36785 0.39277,0.73744 0.59264,1.10426 0.21353,0.39205 -0.34092,0.69402 -0.55445,0.30196 l 0,0 c -0.20062,-0.36851 -0.39651,-0.7396 -0.59527,-1.10913 -0.22448,-0.42128 -0.43579,-0.85001 -0.62646,-1.28771 -0.17135,-0.37564 -0.34222,-0.75176 -0.53366,-1.11775 -0.14128,-0.27183 -0.28229,-0.54403 -0.40835,-0.82335 -0.17586,-0.41033 0.40444,-0.65903 0.58029,-0.2487 z"
       inkscape:connector-curvature="0" />
    <path
       style="color:#000000;display:inline;overflow:visible;visibility:visible;opacity:1;fill:#000000;fill-opacity:1;fill-rule:nonzero;stroke:none;stroke-width:0.80000001;stroke-linecap:butt;stroke-linejoin:miter;stroke-miterlimit:4;stroke-dasharray:none;stroke-dashoffset:0;stroke-opacity:1;marker:none;enable-background:accumulate"
       id="path8199"
       d="m 261.91347,201.86261 c -0.16189,0.23436 -0.32792,0.46586 -0.49302,0.69796 -0.22331,0.31762 -0.46097,0.62466 -0.69372,0.93532 -0.23189,0.30715 -0.45488,0.62091 -0.6779,0.93451 -0.18911,0.25934 -0.37423,0.52102 -0.56875,0.77635 -0.16779,0.21126 -0.33821,0.42039 -0.50908,0.62917 -0.0839,0.1 -0.1595,0.20631 -0.23418,0.31323 -0.25614,0.36563 -0.77323,0.003 -0.51709,-0.36224 l 0,0 c 0.084,-0.11961 0.16873,-0.23873 0.26271,-0.35086 0.16624,-0.2031 0.33197,-0.40659 0.49544,-0.61191 0.19034,-0.24983 0.37137,-0.50594 0.55647,-0.75966 0.22608,-0.31783 0.45207,-0.63585 0.68713,-0.94715 0.22965,-0.30649 0.46418,-0.60937 0.68451,-0.92273 0.16819,-0.23642 0.33703,-0.4724 0.5024,-0.71079 0.26786,-0.35715 0.77293,0.0217 0.50508,0.3788 z"
       inkscape:connector-curvature="0" />
    <path
       style="color:#000000;display:inline;overflow:visible;visibility:visible;opacity:1;fill:#000000;fill-opacity:1;fill-rule:nonzero;stroke:none;stroke-width:0.80000001;stroke-linecap:butt;stroke-linejoin:miter;stroke-miterlimit:4;stroke-dasharray:none;stroke-dashoffset:0;stroke-opacity:1;marker:none;enable-background:accumulate"
       id="path8201"
       d="m 227.58128,212.30917 c -0.17647,0.0222 -0.34705,0.0684 -0.51281,0.13185 -0.25811,0.11261 -0.48967,0.27582 -0.71509,0.44251 -0.24467,0.17236 -0.45358,0.38429 -0.65443,0.60439 -0.18999,0.22614 -0.3617,0.4665 -0.51609,0.71808 -0.1302,0.23219 -0.26753,0.4674 -0.3247,0.72957 -0.0399,0.35386 0.0842,0.69635 0.197,1.02588 0.1296,0.36021 0.28537,0.70867 0.48165,1.03731 0.13768,0.23139 0.31753,0.4261 0.5251,0.5952 0.17302,0.13598 0.36612,0.24039 0.56886,0.32404 0.21507,0.0694 0.44447,0.066 0.66803,0.0701 0.2537,0.003 0.50328,-0.0308 0.74809,-0.0952 0.29779,-0.0885 0.58817,-0.2006 0.87278,-0.32473 0.25603,-0.0996 0.49156,-0.23843 0.72381,-0.38316 0.19081,-0.12355 0.36529,-0.27155 0.5272,-0.43071 0.13732,-0.13787 0.24012,-0.30223 0.33048,-0.47318 0.0942,-0.18312 0.15747,-0.37888 0.21151,-0.57688 0.0503,-0.21906 0.0614,-0.44475 0.0605,-0.66879 0.002,-0.2151 -0.0299,-0.42517 -0.0972,-0.62892 -0.10822,-0.2709 -0.252,-0.52478 -0.4145,-0.76633 -0.19113,-0.27666 -0.43243,-0.51366 -0.67972,-0.73964 -0.21549,-0.19622 -0.45643,-0.35856 -0.71116,-0.49857 -0.23622,-0.11817 -0.50263,-0.12643 -0.76099,-0.1431 -0.2222,-0.0104 -0.44421,1.8e-4 -0.6649,0.0262 -0.44352,0.0509 -0.51548,-0.57635 -0.072,-0.62723 l 0,0 c 0.2583,-0.029 0.51796,-0.0427 0.7779,-0.0289 0.35166,0.0231 0.70798,0.0508 1.02513,0.22042 0.29785,0.16511 0.58029,0.35535 0.83239,0.58567 0.284,0.26061 0.55974,0.5346 0.77803,0.85414 0.19401,0.29126 0.36738,0.5967 0.49112,0.9251 0.0835,0.26693 0.13088,0.54005 0.12718,0.82086 -5.2e-4,0.28055 -0.0154,0.56278 -0.083,0.83623 -0.0669,0.24287 -0.14634,0.48259 -0.26318,0.70673 -0.12202,0.22753 -0.26194,0.44521 -0.44652,0.62794 -0.19548,0.18996 -0.40421,0.368 -0.63444,0.51486 -0.2585,0.16107 -0.52166,0.31407 -0.80589,0.42629 -0.31545,0.13687 -0.6369,0.26147 -0.96742,0.35725 -0.30057,0.0759 -0.60611,0.1206 -0.91707,0.11496 -0.30307,-0.006 -0.61158,-0.0104 -0.89915,-0.11864 -0.25912,-0.10887 -0.50646,-0.24306 -0.72688,-0.41909 -0.26242,-0.21727 -0.49218,-0.46561 -0.66685,-0.76029 -0.21729,-0.36701 -0.39358,-0.75415 -0.53654,-1.15621 -0.15104,-0.44472 -0.29616,-0.90392 -0.2129,-1.37864 0.0835,-0.32441 0.22767,-0.62465 0.40053,-0.91144 0.17587,-0.28498 0.37017,-0.55822 0.58778,-0.81313 0.22877,-0.24985 0.46789,-0.48973 0.74541,-0.68631 0.2726,-0.20098 0.55403,-0.39528 0.8684,-0.52575 0.2176,-0.0804 0.4405,-0.14249 0.67167,-0.16892 0.44422,-0.0444 0.50704,0.5838 0.0628,0.62822 z"
       inkscape:connector-curvature="0" />
    <path
       style="color:#000000;display:inline;overflow:visible;visibility:visible;opacity:1;fill:#000000;fill-opacity:1;fill-rule:nonzero;stroke:none;stroke-width:0.80000001;stroke-linecap:butt;stroke-linejoin:miter;stroke-miterlimit:4;stroke-dasharray:none;stroke-dashoffset:0;stroke-opacity:1;marker:none;enable-background:accumulate"
       id="path8203"
       d="m 228.25646,218.3253 c -0.0568,0.2184 -0.0847,0.44274 -0.11185,0.66632 -0.0401,0.4119 -0.0743,0.82439 -0.10986,1.23673 -0.0387,0.48834 -0.0901,0.97553 -0.14319,1.46248 -0.0743,0.6047 -0.14369,1.20994 -0.20633,1.81596 -0.0593,0.58061 -0.11053,1.16198 -0.15813,1.74364 -0.0345,0.49098 -0.0826,0.98081 -0.12404,1.47123 -0.0373,0.44291 -0.0686,0.88628 -0.0971,1.32983 -0.0336,0.40994 -0.0411,0.81992 -0.0292,1.2308 0.0113,0.38728 0.0493,0.77317 0.0803,1.15923 0.0218,0.35059 0.0707,0.69839 0.11911,1.04603 0.0469,0.32981 0.0855,0.66067 0.11985,0.99199 0.0248,0.18838 0.0119,0.0941 0.0386,0.2829 0.0625,0.44204 -0.56268,0.53037 -0.62514,0.0883 l 0,0 c -0.0283,-0.20085 -0.0145,-0.0988 -0.0415,-0.30614 -0.0336,-0.32401 -0.0714,-0.64756 -0.11719,-0.97008 -0.0501,-0.35977 -0.10032,-0.71975 -0.12311,-1.08254 -0.0319,-0.39683 -0.0707,-0.7935 -0.082,-1.19162 -0.0123,-0.43043 -0.005,-0.86002 0.0302,-1.28946 0.0288,-0.44778 0.0604,-0.89537 0.0981,-1.3425 0.0414,-0.48984 0.0894,-0.9791 0.1239,-1.46951 0.048,-0.58614 0.0996,-1.17199 0.15937,-1.75706 0.0628,-0.60716 0.13219,-1.21357 0.2067,-1.8194 0.0525,-0.48226 0.10358,-0.96476 0.14181,-1.44841 0.0362,-0.4197 0.0708,-0.83958 0.11216,-1.25878 0.0333,-0.27285 0.0671,-0.54787 0.14742,-0.81166 0.15675,-0.41801 0.7479,-0.19633 0.59114,0.22168 z"
       inkscape:connector-curvature="0" />
    <path
       style="color:#000000;display:inline;overflow:visible;visibility:visible;opacity:1;fill:#000000;fill-opacity:1;fill-rule:nonzero;stroke:none;stroke-width:0.80000001;stroke-linecap:butt;stroke-linejoin:miter;stroke-miterlimit:4;stroke-dasharray:none;stroke-dashoffset:0;stroke-opacity:1;marker:none;enable-background:accumulate"
       id="path8205"
       d="m 227.49343,232.98142 c -0.12624,0.30062 -0.23495,0.60878 -0.3464,0.9152 -0.20584,0.54801 -0.39033,1.10353 -0.57594,1.65859 -0.18909,0.59713 -0.36926,1.19701 -0.55882,1.79398 -0.17031,0.54175 -0.34112,1.08342 -0.52313,1.62137 -0.1009,0.29598 -0.0515,0.14984 -0.14817,0.43839 -0.14179,0.42331 -0.74045,0.22279 -0.59866,-0.20052 l 0,0 c 0.0976,-0.29131 0.048,-0.14455 0.14881,-0.44029 0.18089,-0.53413 0.35017,-1.07213 0.51942,-1.61004 0.19056,-0.60001 0.37145,-1.20303 0.5618,-1.80312 0.18736,-0.56027 0.37366,-1.12099 0.58137,-1.67416 0.11549,-0.31751 0.22847,-0.63664 0.35942,-0.9481 0.17585,-0.41034 0.75615,-0.16164 0.5803,0.2487 z"
       inkscape:connector-curvature="0" />
    <path
       style="color:#000000;display:inline;overflow:visible;visibility:visible;opacity:1;fill:#000000;fill-opacity:1;fill-rule:nonzero;stroke:none;stroke-width:0.80000001;stroke-linecap:butt;stroke-linejoin:miter;stroke-miterlimit:4;stroke-dasharray:none;stroke-dashoffset:0;stroke-opacity:1;marker:none;enable-background:accumulate"
       id="path8207"
       d="m 227.77357,232.22764 c 0.10415,0.28902 0.20837,0.57792 0.32354,0.8628 0.22875,0.54309 0.48537,1.07386 0.73129,1.60927 0.24724,0.53536 0.49187,1.07191 0.74308,1.60543 0.15012,0.32116 0.30656,0.63926 0.46133,0.95817 0.19491,0.40164 -0.37308,0.67728 -0.56799,0.27565 l 0,0 c -0.15585,-0.32115 -0.31337,-0.64148 -0.46454,-0.96488 -0.25205,-0.53534 -0.49755,-1.07369 -0.74561,-1.61087 -0.25001,-0.5444 -0.51106,-1.08403 -0.74303,-1.6365 -0.11315,-0.28082 -0.21827,-0.56465 -0.31836,-0.85037 -0.17586,-0.41033 0.40444,-0.65903 0.58029,-0.2487 z"
       inkscape:connector-curvature="0" />
    <path
       style="color:#000000;display:inline;overflow:visible;visibility:visible;opacity:1;fill:#000000;fill-opacity:1;fill-rule:nonzero;stroke:none;stroke-width:0.80000001;stroke-linecap:butt;stroke-linejoin:miter;stroke-miterlimit:4;stroke-dasharray:none;stroke-dashoffset:0;stroke-opacity:1;marker:none;enable-background:accumulate"
       id="path8209"
       d="m 226.97892,224.57095 c 0.25624,-0.13195 0.50127,-0.28471 0.74454,-0.4389 0.38618,-0.25658 0.75793,-0.53448 1.12115,-0.82244 0.31266,-0.2436 0.61569,-0.50004 0.90392,-0.77215 0.16654,-0.1562 0.0857,-0.0788 0.24277,-0.23191 0.31985,-0.31144 0.7603,0.14089 0.44045,0.45233 l 0,0 c -0.1653,0.16086 -0.0819,0.0812 -0.25017,0.239 -0.30178,0.28407 -0.61779,0.55307 -0.94489,0.80758 -0.38078,0.30152 -0.7702,0.59287 -1.1754,0.86095 -0.25359,0.16052 -0.5089,0.31969 -0.77576,0.45743 -0.39025,0.21681 -0.69686,-0.33509 -0.30661,-0.55189 z"
       inkscape:connector-curvature="0" />
    <path
       style="color:#000000;display:inline;overflow:visible;visibility:visible;opacity:1;fill:#000000;fill-opacity:1;fill-rule:nonzero;stroke:none;stroke-width:0.80000001;stroke-linecap:butt;stroke-linejoin:miter;stroke-miterlimit:4;stroke-dasharray:none;stroke-dashoffset:0;stroke-opacity:1;marker:none;enable-background:accumulate"
       id="path8211"
       d="m 227.1057,225.20824 c -0.15627,-0.14546 -0.31273,-0.29062 -0.46526,-0.44002 -0.22978,-0.23126 -0.47755,-0.4435 -0.71479,-0.66698 -0.28972,-0.28834 -0.58671,-0.56916 -0.87886,-0.85503 -0.25978,-0.26737 -0.52294,-0.53142 -0.78276,-0.79875 -0.21327,-0.21673 -0.4286,-0.43144 -0.6407,-0.64931 -0.12059,-0.12952 -0.23835,-0.26161 -0.35856,-0.39146 -0.30316,-0.32771 0.16029,-0.75644 0.46345,-0.42873 l 0,0 c 0.11652,0.12604 0.23103,0.25389 0.3476,0.3799 0.21209,0.21809 0.42773,0.4327 0.641,0.64963 0.25605,0.26359 0.51567,0.52369 0.77153,0.78747 0.28932,0.28313 0.58351,0.56117 0.87033,0.84684 0.24015,0.22647 0.49135,0.44115 0.7238,0.67565 0.14229,0.13972 0.28881,0.2749 0.4341,0.41144 0.33895,0.29053 -0.0719,0.76988 -0.41088,0.47935 z"
       inkscape:connector-curvature="0" />
    <path
       style="color:#000000;display:inline;overflow:visible;visibility:visible;opacity:1;fill:#000000;fill-opacity:1;fill-rule:nonzero;stroke:none;stroke-width:0.80000001;stroke-linecap:butt;stroke-linejoin:miter;stroke-miterlimit:4;stroke-dasharray:none;stroke-dashoffset:0;stroke-opacity:1;marker:none;enable-background:accumulate"
       id="path8213"
       d="m 282.44697,217.09732 c -0.16791,-0.0185 -0.33645,-0.0304 -0.50498,-0.0414 -0.21278,-0.0231 -0.42266,0.0112 -0.62881,0.0615 -0.29655,0.0825 -0.58595,0.18932 -0.86967,0.30827 -0.2528,0.10617 -0.47668,0.25965 -0.69111,0.42793 -0.21364,0.17778 -0.38896,0.39304 -0.54767,0.61967 -0.14787,0.21155 -0.25126,0.44774 -0.34498,0.68689 -0.0861,0.21954 -0.14593,0.44787 -0.18219,0.68064 -0.0457,0.21563 -0.002,0.41085 0.0697,0.61372 0.11621,0.32174 0.31769,0.58192 0.56262,0.81483 0.34855,0.29822 0.74371,0.53447 1.14227,0.75864 0.3528,0.20434 0.74595,0.2738 1.14593,0.3093 0.37594,0.04 0.72223,-0.0656 1.05926,-0.21975 0.33688,-0.16477 0.61767,-0.40815 0.87497,-0.67676 0.24638,-0.27172 0.43273,-0.58798 0.59804,-0.91338 0.14578,-0.31414 0.23096,-0.65099 0.29825,-0.98934 0.0526,-0.26648 0.0723,-0.53776 0.0638,-0.80893 -10e-4,-0.18252 -0.0331,-0.35874 -0.11373,-0.52253 -0.0666,-0.12643 -0.18549,-0.19712 -0.30636,-0.26377 -0.1422,-0.0799 -0.29801,-0.12364 -0.45489,-0.16352 -0.43243,-0.11089 -0.27561,-0.72245 0.15683,-0.61156 l 0,0 c 0.2101,0.0543 0.41784,0.11749 0.60794,0.22502 0.23527,0.13442 0.44642,0.29633 0.56825,0.54611 0.11151,0.24486 0.17262,0.50225 0.17307,0.77277 0.008,0.31868 -0.0129,0.6374 -0.0759,0.95051 -0.0797,0.39467 -0.18092,0.78707 -0.35486,1.15208 -0.19461,0.38029 -0.41484,0.7489 -0.70584,1.06463 -0.31453,0.32478 -0.65859,0.61766 -1.06994,0.81415 -0.43777,0.19538 -0.89125,0.3236 -1.37639,0.27299 -0.4883,-0.0457 -0.96781,-0.13897 -1.39818,-0.38788 -0.44497,-0.25075 -0.88545,-0.51632 -1.27079,-0.85432 -0.31361,-0.3057 -0.57388,-0.64668 -0.72156,-1.06445 -0.10124,-0.30092 -0.15829,-0.60157 -0.096,-0.91843 0.0453,-0.27731 0.11421,-0.55013 0.21803,-0.8118 0.11264,-0.28565 0.23881,-0.56674 0.41616,-0.81911 0.19527,-0.27654 0.4115,-0.53844 0.67492,-0.75359 0.25933,-0.2025 0.53174,-0.38546 0.83676,-0.51327 0.31552,-0.13154 0.63695,-0.25061 0.96719,-0.34 0.26781,-0.0624 0.54025,-0.10568 0.81606,-0.0772 0.1809,0.0119 0.36181,0.0247 0.542,0.045 0.44298,0.0554 0.36467,0.68184 -0.0783,0.62647 z"
       inkscape:connector-curvature="0" />
    <path
       style="color:#000000;display:inline;overflow:visible;visibility:visible;opacity:1;fill:#000000;fill-opacity:1;fill-rule:nonzero;stroke:none;stroke-width:0.80000001;stroke-linecap:butt;stroke-linejoin:miter;stroke-miterlimit:4;stroke-dasharray:none;stroke-dashoffset:0;stroke-opacity:1;marker:none;enable-background:accumulate"
       id="path8217"
       d="m 281.70218,222.89101 c 0,0.22927 0,0.45854 0,0.6878 -0.0107,0.38754 -0.0276,0.77488 -0.0414,1.16232 -0.0148,0.42574 -0.0245,0.85163 -0.0331,1.27753 -0.009,0.45085 -0.0147,0.90174 -0.0203,1.35264 -0.005,0.40948 -0.009,0.81897 -0.0124,1.22846 -0.003,0.40859 -0.006,0.81719 -0.007,1.22578 -0.003,0.40885 -0.006,0.81751 0.007,1.22619 0.0134,0.3553 0.0275,0.71057 0.0399,1.06591 0.0109,0.31637 0.0193,0.63283 0.0267,0.9493 0.007,0.29148 0.0118,0.58299 0.0163,0.87451 6.7e-4,0.0469 10e-4,0.0938 0.002,0.14071 0.006,0.44638 -0.62491,0.45539 -0.63128,0.009 l 0,0 c -6.6e-4,-0.0467 -0.001,-0.0933 -0.002,-0.14002 -0.004,-0.28977 -0.009,-0.57955 -0.0162,-0.86928 -0.007,-0.31416 -0.0157,-0.62831 -0.0265,-0.94237 -0.0123,-0.35599 -0.0265,-0.71191 -0.0399,-1.06786 -0.0131,-0.41632 -0.01,-0.83261 -0.007,-1.24909 0.002,-0.40937 0.004,-0.81875 0.008,-1.22811 0.003,-0.41038 0.007,-0.82075 0.0124,-1.2311 0.006,-0.45247 0.0119,-0.90494 0.0204,-1.35737 0.009,-0.42911 0.0184,-0.85821 0.0334,-1.28715 0.0134,-0.38001 0.0298,-0.75992 0.041,-1.14001 0,-0.22926 0,-0.45853 0,-0.6878 0,-0.44642 0.63134,-0.44642 0.63134,0 z"
       inkscape:connector-curvature="0" />
    <path
       style="color:#000000;display:inline;overflow:visible;visibility:visible;opacity:1;fill:#000000;fill-opacity:1;fill-rule:nonzero;stroke:none;stroke-width:0.80000001;stroke-linecap:butt;stroke-linejoin:miter;stroke-miterlimit:4;stroke-dasharray:none;stroke-dashoffset:0;stroke-opacity:1;marker:none;enable-background:accumulate"
       id="path8219"
       d="m 280.71522,226.88835 c -0.0619,-0.12106 -0.14172,-0.23295 -0.22699,-0.33857 -0.174,-0.19397 -0.36091,-0.37561 -0.54634,-0.5585 -0.21948,-0.20995 -0.44699,-0.41116 -0.67218,-0.61487 -0.20105,-0.18243 -0.40626,-0.35985 -0.61594,-0.53229 -0.0308,-0.0237 -0.0616,-0.0473 -0.0923,-0.071 -0.35363,-0.27248 0.0317,-0.77258 0.38535,-0.5001 l 0,0 c 0.0361,0.0279 0.0721,0.0557 0.1082,0.0836 0.21716,0.17886 0.42999,0.36257 0.63834,0.55162 0.23183,0.20985 0.46624,0.41694 0.69191,0.63351 0.20342,0.20064 0.4088,0.39976 0.59708,0.61496 0.10384,0.13185 0.20396,0.26889 0.28107,0.41837 0.22149,0.38761 -0.32667,0.70084 -0.54816,0.31324 z"
       inkscape:connector-curvature="0" />
    <path
       style="color:#000000;display:inline;overflow:visible;visibility:visible;opacity:1;fill:#000000;fill-opacity:1;fill-rule:nonzero;stroke:none;stroke-width:0.80000001;stroke-linecap:butt;stroke-linejoin:miter;stroke-miterlimit:4;stroke-dasharray:none;stroke-dashoffset:0;stroke-opacity:1;marker:none;enable-background:accumulate"
       id="path8221"
       d="m 281.5993,226.57476 c 0.15994,-0.0359 0.31622,-0.0855 0.47162,-0.13729 0.23172,-0.0859 0.4616,-0.17762 0.68452,-0.28442 0.22665,-0.10686 0.45267,-0.21473 0.66947,-0.34061 0.23731,-0.14949 0.46915,-0.30733 0.70185,-0.46382 0.21307,-0.15177 0.42692,-0.30231 0.64017,-0.45377 0.0987,-0.0665 0.19406,-0.13759 0.2909,-0.20667 0.36346,-0.25921 0.73004,0.25481 0.36658,0.51402 l 0,0 c -0.0973,0.0693 -0.19302,0.14076 -0.2921,0.20752 -0.2177,0.15437 -0.4356,0.30836 -0.65326,0.46281 -0.24446,0.16437 -0.48786,0.33047 -0.7379,0.48635 -0.23166,0.13371 -0.47187,0.25064 -0.71404,0.36407 -0.24686,0.11719 -0.50026,0.22025 -0.75707,0.31364 -0.1706,0.0566 -0.3422,0.11084 -0.51761,0.15066 -0.4331,0.10828 -0.58623,-0.50422 -0.15313,-0.61249 z"
       inkscape:connector-curvature="0" />
    <path
       style="color:#000000;display:inline;overflow:visible;visibility:visible;opacity:1;fill:#000000;fill-opacity:1;fill-rule:nonzero;stroke:none;stroke-width:0.80000001;stroke-linecap:butt;stroke-linejoin:miter;stroke-miterlimit:4;stroke-dasharray:none;stroke-dashoffset:0;stroke-opacity:1;marker:none;enable-background:accumulate"
       id="path8223"
       d="m 281.7783,234.29187 c 0.18357,0.20341 0.3318,0.43484 0.48267,0.66262 0.19215,0.2969 0.36307,0.6067 0.54342,0.91074 0.16044,0.27319 0.31202,0.55143 0.4686,0.8268 0.13224,0.24156 0.2745,0.47741 0.40798,0.71824 0.0888,0.16313 0.18704,0.32095 0.28513,0.47861 0.23574,0.37911 -0.3004,0.7125 -0.53614,0.33339 l 0,0 c -0.10366,-0.16676 -0.20737,-0.33373 -0.30135,-0.50621 -0.1321,-0.23893 -0.27366,-0.47251 -0.40456,-0.71215 -0.15446,-0.27208 -0.30447,-0.5467 -0.4627,-0.81664 -0.17496,-0.29511 -0.34101,-0.59565 -0.52679,-0.88422 -0.13805,-0.20856 -0.27266,-0.42123 -0.44128,-0.607 -0.28579,-0.34295 0.19922,-0.74713 0.48502,-0.40418 z"
       inkscape:connector-curvature="0" />
    <path
       style="color:#000000;display:inline;overflow:visible;visibility:visible;opacity:1;fill:#000000;fill-opacity:1;fill-rule:nonzero;stroke:none;stroke-width:0.80000001;stroke-linecap:butt;stroke-linejoin:miter;stroke-miterlimit:4;stroke-dasharray:none;stroke-dashoffset:0;stroke-opacity:1;marker:none;enable-background:accumulate"
       id="path8225"
       d="m 281.64219,234.15011 c -0.12283,0.20558 -0.23319,0.41821 -0.3523,0.62596 -0.19009,0.33252 -0.39368,0.65739 -0.61589,0.96937 -0.1893,0.25276 -0.39461,0.49265 -0.59706,0.73477 -0.173,0.21462 -0.34772,0.42753 -0.5164,0.6456 -0.17757,0.25596 -0.39333,0.48058 -0.59578,0.71612 -0.12181,0.13971 -0.24981,0.274 -0.37913,0.40675 -0.3117,0.31959 -0.76368,-0.12122 -0.45197,-0.44081 l 0,0 c 0.12032,-0.12321 0.23913,-0.2481 0.35253,-0.37773 0.19554,-0.22704 0.40385,-0.44355 0.57497,-0.69063 0.1736,-0.2244 0.35339,-0.44352 0.53149,-0.66434 0.19216,-0.22971 0.38696,-0.45732 0.56746,-0.69649 0.21073,-0.2946 0.40202,-0.6027 0.5822,-0.91685 0.1191,-0.20731 0.22893,-0.41979 0.35171,-0.62496 0.2215,-0.38761 0.76966,-0.0744 0.54817,0.31324 z"
       inkscape:connector-curvature="0" />
  </g>
  <g
     inkscape:groupmode="layer"
     id="layer4"
     inkscape:label="Layer 4"
     style="opacity:0.6">
    <path
       style="color:#000000;display:inline;overflow:visible;visibility:visible;opacity:1;fill:#2a7fff;fill-opacity:1;fill-rule:nonzero;stroke:none;stroke-width:0.80000001;stroke-linecap:butt;stroke-linejoin:miter;stroke-miterlimit:4;stroke-dasharray:none;stroke-dashoffset:0;stroke-opacity:1;marker:none;enable-background:accumulate"
       id="path8238"
       d="m 186.40541,62.109916 c -0.0983,1.231888 -0.12876,2.467913 -0.15909,3.702945 -0.0715,1.671103 -0.0361,3.336572 0.10413,5.002412 0.27221,2.036304 0.56305,4.073118 0.92027,6.096607 0.15501,0.879298 -1.0885,1.098521 -1.24352,0.219224 l 0,0 c -0.3629,-2.061271 -0.66163,-4.135573 -0.93502,-6.210261 -0.14308,-1.711298 -0.18148,-3.422379 -0.10817,-5.139012 0.0314,-1.276949 0.0622,-2.555155 0.16846,-3.828533 0.11075,-0.885962 1.36369,-0.729345 1.25294,0.156618 z"
       inkscape:connector-curvature="0" />
    <path
       style="color:#000000;display:inline;overflow:visible;visibility:visible;opacity:1;fill:#2a7fff;fill-opacity:1;fill-rule:nonzero;stroke:none;stroke-width:0.80000001;stroke-linecap:butt;stroke-linejoin:miter;stroke-miterlimit:4;stroke-dasharray:none;stroke-dashoffset:0;stroke-opacity:1;marker:none;enable-background:accumulate"
       id="path8240"
       d="m 185.59709,65.008231 c 0.63582,-0.593171 1.3193,-1.121677 2.03519,-1.613453 0.6782,-0.437456 1.42478,-0.745019 2.21607,-0.897277 1.11636,-0.112155 1.55327,0.599328 2.04158,1.475242 0.64678,1.231401 1.04598,2.560377 1.35233,3.910673 0.24256,1.111223 0.29373,2.257336 0.25372,3.391235 -0.048,0.717554 -0.12316,1.43279 -0.17237,2.150271 -0.0293,0.492944 -0.0787,0.991 0.0355,1.476392 0.1833,0.87384 -1.0525,1.13306 -1.23579,0.259221 l 0,0 c -0.11833,-0.603436 -0.11501,-1.210597 -0.0594,-1.822143 0.0485,-0.704416 0.12058,-1.406758 0.17028,-2.11106 0.0411,-1.024178 -0.009,-2.061413 -0.22352,-3.065507 -0.27827,-1.235882 -0.63959,-2.452718 -1.22755,-3.581375 -0.0561,-0.104264 -0.34203,-0.722503 -0.48228,-0.802991 -0.0745,-0.04277 -0.14309,-0.03353 -0.22691,-0.03758 -0.61833,0.101363 -1.19533,0.370751 -1.72687,0.695813 -0.70196,0.481807 -1.36513,1.005923 -1.99234,1.582688 -0.71428,0.535714 -1.4719,-0.474438 -0.75761,-1.010152 z"
       inkscape:connector-curvature="0" />
    <path
       style="color:#000000;display:inline;overflow:visible;visibility:visible;opacity:1;fill:#2a7fff;fill-opacity:1;fill-rule:nonzero;stroke:none;stroke-width:0.80000001;stroke-linecap:butt;stroke-linejoin:miter;stroke-miterlimit:4;stroke-dasharray:none;stroke-dashoffset:0;stroke-opacity:1;marker:none;enable-background:accumulate"
       id="path8242"
       d="m 192.16308,65.008231 c 0.62027,-0.51464 1.27142,-0.977651 1.98699,-1.349212 0.72027,-0.317206 1.48779,-0.503729 2.25748,-0.654613 0.73507,-0.155788 1.33706,-0.200631 2.02404,0.135592 0.84388,0.709522 1.01362,1.858122 1.20979,2.88569 0.24666,1.145813 0.39793,2.308028 0.50947,3.473771 0.0747,0.8276 0.11384,1.657735 0.13998,2.488101 0.0167,0.58216 0.0222,1.164555 0.0261,1.746916 0.003,0.566907 0.004,1.133825 0.004,1.700739 7e-5,0.09255 1.3e-4,0.1851 2e-4,0.277651 6.3e-4,0.892856 -1.26206,0.893758 -1.26269,9.01e-4 l 0,0 c -7e-5,-0.09244 -1.3e-4,-0.184887 -2e-4,-0.277331 -5.5e-4,-0.564515 -0.001,-1.129033 -0.004,-1.693541 -0.004,-0.571945 -0.009,-1.143924 -0.0255,-1.715673 -0.0252,-0.803547 -0.0628,-1.606877 -0.13489,-2.407769 -0.10735,-1.127111 -0.25392,-2.250693 -0.49304,-3.358357 -0.12655,-0.671335 -0.25191,-1.397155 -0.56147,-2.005905 -0.35007,-0.239913 -0.80469,-0.05525 -1.18991,-0.01148 -0.65339,0.126924 -1.30438,0.282702 -1.92109,0.537796 -0.65556,0.334406 -1.23922,0.771386 -1.80766,1.236879 -0.71429,0.535714 -1.4719,-0.474438 -0.75762,-1.010152 z"
       inkscape:connector-curvature="0" />
    <path
       style="color:#000000;display:inline;overflow:visible;visibility:visible;opacity:1;fill:#2a7fff;fill-opacity:1;fill-rule:nonzero;stroke:none;stroke-width:0.80000001;stroke-linecap:butt;stroke-linejoin:miter;stroke-miterlimit:4;stroke-dasharray:none;stroke-dashoffset:0;stroke-opacity:1;marker:none;enable-background:accumulate"
       id="path8246"
       d="m 204.88645,70.043145 c 1.17164,-0.579278 2.32917,-1.185913 3.50452,-1.75766 0.91996,-0.452836 0.46675,-0.232851 1.35937,-0.660469 0.80525,-0.385711 1.35073,0.753078 0.54548,1.138789 l 0,0 c -0.88228,0.422558 -0.4313,0.203724 -1.35262,0.657207 -1.17129,0.569485 -2.32443,1.174589 -3.49206,1.751518 -0.79859,0.399297 -1.36329,-0.730088 -0.56469,-1.129385 z"
       inkscape:connector-curvature="0" />
    <path
       style="color:#000000;display:inline;overflow:visible;visibility:visible;opacity:1;fill:#2a7fff;fill-opacity:1;fill-rule:nonzero;stroke:none;stroke-width:0.80000001;stroke-linecap:butt;stroke-linejoin:miter;stroke-miterlimit:4;stroke-dasharray:none;stroke-dashoffset:0;stroke-opacity:1;marker:none;enable-background:accumulate"
       id="path8248"
       d="m 210.16641,67.824963 c -0.25723,-0.416882 -0.52426,-0.810386 -0.92686,-1.096535 -0.35678,-0.224414 -0.76886,-0.29201 -1.17887,-0.346282 -0.45349,-0.05884 -0.91103,0.01457 -1.36365,0.05349 -0.30222,0.04306 -0.58125,0.138378 -0.82747,0.318715 -0.42865,0.339948 -0.79837,0.743968 -1.17941,1.134149 -0.29158,0.334949 -0.59262,0.671706 -0.78708,1.074266 -0.15056,0.360685 -0.19357,0.75126 -0.23102,1.136704 -0.0578,0.389895 -0.0244,0.756914 0.10357,1.126383 0.20682,0.509205 0.54697,0.945001 0.88828,1.369725 0.33057,0.424289 0.65194,0.861008 1.05546,1.219709 0.35173,0.328013 0.77894,0.545629 1.19161,0.782739 0.44289,0.253347 0.92159,0.43034 1.39794,0.608834 0.78699,0.304601 1.60639,0.51011 2.43332,0.670786 0.48668,0.127369 0.95731,0.07511 1.43978,-0.01875 0.30791,-0.102374 0.60619,-0.24292 0.88608,-0.407623 0.77683,-0.440146 1.39929,0.658458 0.62246,1.098604 l 0,0 c -0.40315,0.223551 -0.81896,0.434907 -1.26821,0.548626 -0.64043,0.123797 -1.27835,0.173439 -1.92182,0.01848 -0.89534,-0.175217 -1.78251,-0.398174 -2.63491,-0.727811 -0.54108,-0.202996 -1.08319,-0.408505 -1.58567,-0.697444 -0.48936,-0.283769 -0.99273,-0.548955 -1.4087,-0.940979 -0.44684,-0.410504 -0.8278,-0.881241 -1.19246,-1.365292 -0.43461,-0.54311 -0.85682,-1.106123 -1.10232,-1.764122 -0.17224,-0.538851 -0.24106,-1.08112 -0.161,-1.645869 0.054,-0.539998 0.12974,-1.082719 0.35978,-1.580493 0.26445,-0.512916 0.62174,-0.965174 1.01197,-1.389135 0.43768,-0.447255 0.8631,-0.911164 1.36424,-1.290096 0.4359,-0.292795 0.91193,-0.479717 1.43745,-0.538161 0.54519,-0.04683 1.09508,-0.126109 1.64115,-0.04672 0.62261,0.08578 1.23504,0.221196 1.76244,0.583917 0.53159,0.404937 0.93356,0.907241 1.27024,1.483709 0.44298,0.775217 -0.65334,1.401687 -1.09632,0.62647 z"
       inkscape:connector-curvature="0" />
    <path
       style="color:#000000;display:inline;overflow:visible;visibility:visible;opacity:1;fill:#2a7fff;fill-opacity:1;fill-rule:nonzero;stroke:none;stroke-width:0.80000001;stroke-linecap:butt;stroke-linejoin:miter;stroke-miterlimit:4;stroke-dasharray:none;stroke-dashoffset:0;stroke-opacity:1;marker:none;enable-background:accumulate"
       id="path8254"
       d="m 284.41697,172.16012 c -0.0545,1.08173 0.0653,2.14715 0.2076,3.21712 0.34991,2.34481 0.64769,4.69652 0.89978,7.05374 0.11586,1.3511 0.32124,2.69199 0.46924,4.03951 0.0611,0.8676 0.17523,1.72958 0.2684,2.59401 0.0708,0.57519 0.1067,1.14896 0.074,1.72747 -0.0526,0.8913 -1.31313,0.81686 -1.26049,-0.0744 l 0,0 c 0.0317,-0.50843 -0.009,-1.01198 -0.0689,-1.51776 -0.093,-0.8636 -0.20716,-1.7248 -0.26813,-2.59156 -0.14781,-1.34871 -0.35416,-2.69067 -0.46963,-4.04299 -0.25082,-2.34656 -0.54771,-4.68755 -0.89594,-7.02174 -0.14918,-1.12483 -0.27259,-2.24645 -0.21859,-3.38335 0,-0.89286 1.26269,-0.89286 1.26269,0 z"
       inkscape:connector-curvature="0" />
    <path
       style="color:#000000;display:inline;overflow:visible;visibility:visible;opacity:1;fill:#2a7fff;fill-opacity:1;fill-rule:nonzero;stroke:none;stroke-width:0.80000001;stroke-linecap:butt;stroke-linejoin:miter;stroke-miterlimit:4;stroke-dasharray:none;stroke-dashoffset:0;stroke-opacity:1;marker:none;enable-background:accumulate"
       id="path8256"
       d="m 279.68943,179.1605 c 0.97198,0 1.94396,0 2.91594,0 1.29495,0 2.5899,0 3.88485,0 0.79348,0.0348 1.58151,-0.0394 2.37006,-0.11366 0.32309,-0.0575 0.16104,-0.0265 0.4861,-0.0932 0.8749,-0.1782 1.12691,1.05909 0.25201,1.23728 l 0,0 c -0.39574,0.0802 -0.18927,0.0419 -0.61973,0.113 -0.82781,0.078 -1.65559,0.15329 -2.48844,0.11922 -1.29495,0 -2.5899,0 -3.88485,0 -0.97198,0 -1.94396,0 -2.91594,0 -0.89286,0 -0.89286,-1.26269 0,-1.26269 z"
       inkscape:connector-curvature="0" />
    <path
       style="color:#000000;display:inline;overflow:visible;visibility:visible;opacity:1;fill:#2a7fff;fill-opacity:1;fill-rule:nonzero;stroke:none;stroke-width:0.80000001;stroke-linecap:butt;stroke-linejoin:miter;stroke-miterlimit:4;stroke-dasharray:none;stroke-dashoffset:0;stroke-opacity:1;marker:none;enable-background:accumulate"
       id="path8258"
       d="m 296.98507,174.06484 c -0.21829,1.03859 -0.33612,2.09305 -0.48427,3.14278 -0.17012,1.20397 -0.27713,2.41539 -0.35328,3.62853 -0.0532,0.94318 -0.076,1.88769 -0.0932,2.8321 -0.0125,0.77434 -0.015,1.54879 -0.0174,2.32322 -0.002,0.76368 -0.002,1.52736 -0.003,2.29103 -2.7e-4,0.67278 -3.5e-4,1.34556 -4.1e-4,2.01834 -2e-5,0.28205 -3e-5,0.56409 -4e-5,0.84614 -3e-5,0.89286 -1.26272,0.89281 -1.26269,-4e-5 l 0,0 c 10e-6,-0.28207 2e-5,-0.56414 4e-5,-0.84621 6e-5,-0.67294 1.4e-4,-1.34589 4.1e-4,-2.01883 3.7e-4,-0.76475 8e-4,-1.52949 0.003,-2.29423 0.002,-0.7808 0.005,-1.56162 0.0176,-2.34234 0.0175,-0.96319 0.041,-1.92649 0.0954,-2.88841 0.0784,-1.2457 0.18838,-2.48964 0.3632,-3.72592 0.15306,-1.08232 0.27533,-2.16947 0.50193,-3.24007 0.19369,-0.8716 1.42631,-0.59768 1.23262,0.27391 z"
       inkscape:connector-curvature="0" />
    <path
       style="color:#000000;display:inline;overflow:visible;visibility:visible;opacity:1;fill:#2a7fff;fill-opacity:1;fill-rule:nonzero;stroke:none;stroke-width:0.80000001;stroke-linecap:butt;stroke-linejoin:miter;stroke-miterlimit:4;stroke-dasharray:none;stroke-dashoffset:0;stroke-opacity:1;marker:none;enable-background:accumulate"
       id="path8260"
       d="m 301.36378,189.89253 c 0.0842,-0.63106 0.10681,-1.26805 0.18592,-1.89935 0.0916,-0.5624 0.16642,-1.12673 0.21511,-1.69443 0.007,-0.30272 -0.0389,-0.592 -0.20663,-0.84654 -0.36797,-0.43466 -0.80028,-0.81872 -1.23617,-1.18475 -0.37228,-0.2861 -0.7951,-0.5215 -1.26371,-0.59354 -0.30559,-0.0552 -0.5725,0.0162 -0.85162,0.12708 -0.33205,0.10458 -0.61216,0.31343 -0.91552,0.47695 -0.25172,0.16239 -0.4857,0.36692 -0.65985,0.61201 -0.2514,0.30903 -0.46939,0.6436 -0.69019,0.97477 -0.16315,0.31773 -0.33504,0.63263 -0.44779,0.97277 -0.28885,0.84485 -1.48364,0.43635 -1.19478,-0.4085 l 0,0 c 0.15386,-0.44122 0.36417,-0.85981 0.59312,-1.26644 0.2357,-0.35126 0.46669,-0.7072 0.73373,-1.03583 0.29812,-0.38101 0.65135,-0.72166 1.07348,-0.96394 0.34792,-0.18047 0.66511,-0.42358 1.04621,-0.53709 0.50078,-0.19507 1.00959,-0.28711 1.54685,-0.19267 0.67961,0.13964 1.30432,0.42749 1.84404,0.86911 0.54049,0.45734 1.08688,0.93195 1.50742,1.50455 0.28236,0.49603 0.41443,1.02595 0.37944,1.60047 -0.0506,0.58509 -0.1255,1.16712 -0.22071,1.74669 -0.0831,0.62924 -0.0962,1.26627 -0.18541,1.8953 -0.11074,0.88596 -1.36368,0.72934 -1.25294,-0.15662 z"
       inkscape:connector-curvature="0" />
    <path
       style="color:#000000;display:inline;overflow:visible;visibility:visible;opacity:1;fill:#2a7fff;fill-opacity:1;fill-rule:nonzero;stroke:none;stroke-width:0.80000001;stroke-linecap:butt;stroke-linejoin:miter;stroke-miterlimit:4;stroke-dasharray:none;stroke-dashoffset:0;stroke-opacity:1;marker:none;enable-background:accumulate"
       id="path8262"
       d="m 309.449,186.72204 c 0.56329,-0.20393 1.09582,-0.4779 1.64322,-0.71853 0.48303,-0.2437 0.96652,-0.48971 1.41685,-0.79038 0.59098,-0.4348 1.24297,-0.77069 1.88982,-1.11205 0.37527,-0.17695 0.18585,-0.0944 0.56812,-0.24779 0.82992,-0.3293 1.29562,0.84437 0.46571,1.17367 l 0,0 c -0.29396,0.11494 -0.14548,0.0517 -0.4449,0.19106 -0.61099,0.32186 -1.22718,0.63754 -1.78424,1.04964 -0.51334,0.3346 -1.0536,0.62403 -1.60448,0.89234 -0.55105,0.24071 -1.08588,0.51837 -1.6527,0.72264 -0.82067,0.35171 -1.31806,-0.80888 -0.4974,-1.1606 z"
       inkscape:connector-curvature="0" />
    <path
       style="color:#000000;display:inline;overflow:visible;visibility:visible;opacity:1;fill:#2a7fff;fill-opacity:1;fill-rule:nonzero;stroke:none;stroke-width:0.80000001;stroke-linecap:butt;stroke-linejoin:miter;stroke-miterlimit:4;stroke-dasharray:none;stroke-dashoffset:0;stroke-opacity:1;marker:none;enable-background:accumulate"
       id="path8264"
       d="m 315.47481,184.75012 c -0.3802,-0.62262 -0.82597,-1.20541 -1.31045,-1.7501 -0.3493,-0.44256 -0.77018,-0.81308 -1.25237,-1.10305 -0.39585,-0.26504 -0.83716,-0.42414 -1.29731,-0.53236 -0.35014,-0.0781 -0.71909,-0.0663 -1.05366,0.0685 -0.37242,0.18036 -0.58335,0.52893 -0.7793,0.87787 -0.25681,0.49213 -0.38373,1.0312 -0.47452,1.57454 -0.0754,0.50373 -0.0983,1.01304 -0.11608,1.52143 -0.0151,0.50463 -0.0185,1.00952 -0.0215,1.51434 -0.002,0.50499 -0.003,1.01 -0.003,1.515 0.0169,0.30366 0.0858,0.58907 0.25874,0.84035 0.35005,0.47096 0.79678,0.84498 1.23953,1.22294 0.33723,0.30528 0.73586,0.48295 1.16988,0.59739 0.4146,0.0786 0.84194,0.15476 1.26528,0.12786 0.34248,-0.0263 0.68582,-0.097 1.00375,-0.22969 0.33036,-0.10488 0.6291,-0.26536 0.92472,-0.4417 0.10418,-0.0767 0.18512,-0.17577 0.27725,-0.26674 0.63546,-0.62721 1.52246,0.27147 0.887,0.89867 l 0,0 c -0.16333,0.16114 -0.31826,0.33368 -0.51744,0.45252 -0.35662,0.21266 -0.72153,0.40313 -1.11677,0.5352 -0.45286,0.16796 -0.9229,0.29062 -1.40768,0.31341 -0.55366,0.0154 -1.10779,-0.0471 -1.64783,-0.17119 -0.6111,-0.17003 -1.1797,-0.42823 -1.65812,-0.85549 -0.53755,-0.45915 -1.07458,-0.92277 -1.48503,-1.50555 -0.28555,-0.46569 -0.44391,-0.96879 -0.45597,-1.51908 4.4e-4,-0.50709 9.3e-4,-1.01419 0.003,-1.52128 0.003,-0.51717 0.007,-1.0344 0.0222,-1.55137 0.0199,-0.56409 0.047,-1.12912 0.133,-1.68773 0.11825,-0.69138 0.29012,-1.37448 0.62653,-1.99612 0.35867,-0.60791 0.77634,-1.16866 1.45555,-1.43752 0.57446,-0.18825 1.17058,-0.2505 1.76509,-0.10436 0.58955,0.14366 1.15789,0.34982 1.6676,0.68679 0.57882,0.3654 1.10831,0.79738 1.53288,1.33953 0.53922,0.61169 1.04048,1.26091 1.46127,1.96054 0.44298,0.77522 -0.65334,1.40169 -1.09632,0.62647 z"
       inkscape:connector-curvature="0" />
    <path
       style="color:#000000;display:inline;overflow:visible;visibility:visible;opacity:1;fill:#2a7fff;fill-opacity:1;fill-rule:nonzero;stroke:none;stroke-width:0.80000001;stroke-linecap:butt;stroke-linejoin:miter;stroke-miterlimit:4;stroke-dasharray:none;stroke-dashoffset:0;stroke-opacity:1;marker:none;enable-background:accumulate"
       id="path8266"
       d="m 322.52347,182.82314 c -0.0763,0.73251 -0.12929,1.46582 -0.21612,2.19732 -0.1386,0.95327 -0.34583,1.89375 -0.48794,2.84644 -0.152,0.78765 -0.2939,1.5767 -0.3922,2.37296 -0.0788,0.43431 -0.038,0.22543 -0.12125,0.62687 -0.18171,0.87417 -1.41797,0.6172 -1.23626,-0.25697 l 0,0 c 0.0728,-0.34943 0.038,-0.17441 0.10439,-0.52506 0.10015,-0.8067 0.24037,-1.60686 0.39652,-2.40455 0.1409,-0.94002 0.34158,-1.86862 0.48285,-2.80855 0.0872,-0.73407 0.13868,-1.47013 0.21707,-2.20507 0.11074,-0.88596 1.36368,-0.72935 1.25294,0.15661 z"
       inkscape:connector-curvature="0" />
    <path
       style="color:#000000;display:inline;overflow:visible;visibility:visible;opacity:1;fill:#2a7fff;fill-opacity:1;fill-rule:nonzero;stroke:none;stroke-width:0.80000001;stroke-linecap:butt;stroke-linejoin:miter;stroke-miterlimit:4;stroke-dasharray:none;stroke-dashoffset:0;stroke-opacity:1;marker:none;enable-background:accumulate"
       id="path8268"
       d="m 321.31829,183.94412 c 0.68518,-0.29979 1.3638,-0.61478 2.05807,-0.89315 0.64139,-0.24589 1.30939,-0.41632 1.99461,-0.46691 0.62413,-0.046 1.14617,0.0964 1.62292,0.50192 0.49092,0.54496 0.60344,1.2754 0.70815,1.97522 0.083,0.60101 0.12457,1.20317 0.0708,1.80782 -0.086,0.60429 -0.19734,1.20437 -0.27262,1.81076 -0.11548,0.64739 -0.20564,1.29767 -0.35655,1.93795 -0.10303,0.55557 -0.21172,1.10922 -0.32469,1.66298 -0.1786,0.87481 -1.41577,0.62222 -1.23717,-0.25259 l 0,0 c 0.11572,-0.56635 0.22556,-1.13274 0.33298,-1.70062 0.14104,-0.59587 0.22157,-1.20161 0.33241,-1.80368 0.074,-0.59299 0.17871,-1.18063 0.26828,-1.77066 0.0485,-0.50386 0.003,-1.00557 -0.0625,-1.5069 -0.0603,-0.4118 -0.11599,-0.83966 -0.29954,-1.21793 -0.19612,-0.1996 -0.41922,-0.19844 -0.70351,-0.18405 -0.55161,0.024 -1.08771,0.19553 -1.60449,0.37902 -0.6852,0.27352 -1.35341,0.587 -2.02975,0.88142 -0.82066,0.35171 -1.31806,-0.80888 -0.4974,-1.1606 z"
       inkscape:connector-curvature="0" />
    <path
       style="color:#000000;display:inline;overflow:visible;visibility:visible;opacity:1;fill:#2a7fff;fill-opacity:1;fill-rule:nonzero;stroke:none;stroke-width:0.80000001;stroke-linecap:butt;stroke-linejoin:miter;stroke-miterlimit:4;stroke-dasharray:none;stroke-dashoffset:0;stroke-opacity:1;marker:none;enable-background:accumulate"
       id="path8270"
       d="m 327.88429,184.95428 c 0.68479,-0.29367 1.34742,-0.63508 2.01798,-0.95915 0.58221,-0.27091 1.15149,-0.55726 1.76563,-0.74985 0.67986,-0.17332 1.28967,-0.071 1.86542,0.3198 0.38858,0.36517 0.64802,0.83737 0.83674,1.3309 0.17162,0.50831 0.21576,1.04393 0.2497,1.57557 0.0623,0.68202 0.006,1.36206 -0.0433,2.04252 -0.11803,0.9544 -0.21583,1.91068 -0.28715,2.86968 -0.0177,0.62414 -0.0929,1.24141 -0.18255,1.85845 -0.12841,0.88358 -1.37797,0.70198 -1.24956,-0.18159 l 0,0 c 0.0855,-0.58801 0.15769,-1.17562 0.17291,-1.77062 0.0714,-0.95796 0.16671,-1.91356 0.28693,-2.86669 0.045,-0.6239 0.10165,-1.24663 0.0426,-1.87207 -0.0255,-0.40835 -0.0521,-0.82094 -0.17282,-1.21455 -0.0967,-0.27183 -0.24178,-0.51567 -0.40177,-0.75455 -0.20177,-0.20326 -0.47939,-0.17266 -0.74356,-0.13068 -0.55531,0.16911 -1.06201,0.44337 -1.58992,0.68066 -0.68776,0.33209 -1.36726,0.68231 -2.06984,0.98276 -0.82066,0.35171 -1.31806,-0.80888 -0.49739,-1.16059 z"
       inkscape:connector-curvature="0" />
  </g>
</svg>
